# MagicaVoxel @ Ephtracy

# group
o rocket2

# material
mtllib weapons-10-rocket2.mtl
usemtl palette

# normals
vn -1 0 0
vn 1 0 0
vn 0 -1 0
vn 0 1 0
vn 0 0 -1
vn 0 0 1

# texcoords
vt 0.193359 0.5
vt 0.205078 0.5
vt 0.236328 0.5
vt 0.580078 0.5
vt 0.650391 0.5
vt 0.716797 0.5
vt 0.783203 0.5
vt 0.798828 0.5
vt 0.869141 0.5
vt 0.974609 0.5

# verts
v -3.5 7.5 4
v -3.5 7.6 4
v -3.5 7.7 4
v -3.5 7.5 4.2
v -3.5 7.6 4.2
v -3.5 7.7 4.2
v -3.4 7.5 3.9
v -3.4 7.6 3.9
v -3.4 7.7 3.9
v -3.4 7.4 4
v -3.4 7.5 4
v -3.4 7.6 4
v -3.4 7.7 4
v -3.4 7.8 4
v -3.4 7.4 4.2
v -3.4 7.5 4.2
v -3.4 7.6 4.2
v -3.4 7.7 4.2
v -3.4 7.8 4.2
v -3.4 7.5 4.3
v -3.4 7.6 4.3
v -3.4 7.7 4.3
v -3.3 7.4 3.9
v -3.3 7.5 3.9
v -3.3 7.7 3.9
v -3.3 7.8 3.9
v -3.3 7.2 4
v -3.3 7.3 4
v -3.3 7.4 4
v -3.3 7.5 4
v -3.3 7.7 4
v -3.3 7.8 4
v -3.3 7.9 4
v -3.3 8 4
v -3.3 7.2 4.2
v -3.3 7.3 4.2
v -3.3 7.4 4.2
v -3.3 7.5 4.2
v -3.3 7.7 4.2
v -3.3 7.8 4.2
v -3.3 7.9 4.2
v -3.3 8 4.2
v -3.3 7.4 4.3
v -3.3 7.5 4.3
v -3.3 7.7 4.3
v -3.3 7.8 4.3
v -3.2 7.2 4
v -3.2 7.3 4
v -3.2 7.9 4
v -3.2 8 4
v -3.2 7.2 4.2
v -3.2 7.3 4.2
v -3.2 7.9 4.2
v -3.2 8 4.2
v -3.1 7.3 4
v -3.1 7.4 4
v -3.1 7.8 4
v -3.1 7.9 4
v -3.1 7.3 4.2
v -3.1 7.4 4.2
v -3.1 7.8 4.2
v -3.1 7.9 4.2
v -2.7 7.4 3.9
v -2.7 7.5 3.9
v -2.7 7.7 3.9
v -2.7 7.8 3.9
v -2.7 7.4 4
v -2.7 7.5 4
v -2.7 7.7 4
v -2.7 7.8 4
v -2.7 7.4 4.2
v -2.7 7.5 4.2
v -2.7 7.7 4.2
v -2.7 7.8 4.2
v -2.7 7.4 4.3
v -2.7 7.5 4.3
v -2.7 7.7 4.3
v -2.7 7.8 4.3
v -2.6 7.5 3.9
v -2.6 7.6 3.9
v -2.6 7.7 3.9
v -2.6 7.4 4
v -2.6 7.5 4
v -2.6 7.6 4
v -2.6 7.7 4
v -2.6 7.8 4
v -2.6 7.4 4.2
v -2.6 7.5 4.2
v -2.6 7.6 4.2
v -2.6 7.7 4.2
v -2.6 7.8 4.2
v -2.6 7.5 4.3
v -2.6 7.6 4.3
v -2.6 7.7 4.3
v -2.5 7.5 4
v -2.5 7.6 4
v -2.5 7.7 4
v -2.5 7.5 4.2
v -2.5 7.6 4.2
v -2.5 7.7 4.2
v -3.3 7.2 4
v -3.3 7.2 4.2
v -3.2 7.2 4
v -3.2 7.2 4.2
v -3.2 7.3 4
v -3.2 7.3 4.2
v -3.1 7.3 4
v -3.1 7.3 4.2
v -3.4 7.4 4
v -3.4 7.4 4.2
v -3.3 7.4 3.9
v -3.3 7.4 4
v -3.3 7.4 4.2
v -3.3 7.4 4.3
v -3.2 7.4 4
v -3.2 7.4 4.2
v -3.1 7.4 4
v -3.1 7.4 4.2
v -2.8 7.4 3.9
v -2.8 7.4 4.3
v -2.7 7.4 3.9
v -2.7 7.4 4
v -2.7 7.4 4.2
v -2.7 7.4 4.3
v -2.6 7.4 4
v -2.6 7.4 4.2
v -3.5 7.5 4
v -3.5 7.5 4.2
v -3.4 7.5 3.9
v -3.4 7.5 4
v -3.4 7.5 4.2
v -3.4 7.5 4.3
v -3.3 7.5 3.9
v -3.3 7.5 4
v -3.3 7.5 4.2
v -3.3 7.5 4.3
v -2.7 7.5 3.9
v -2.7 7.5 4
v -2.7 7.5 4.2
v -2.7 7.5 4.3
v -2.6 7.5 3.9
v -2.6 7.5 4
v -2.6 7.5 4.2
v -2.6 7.5 4.3
v -2.5 7.5 4
v -2.5 7.5 4.2
v -3.5 7.7 4
v -3.5 7.7 4.2
v -3.4 7.7 3.9
v -3.4 7.7 4
v -3.4 7.7 4.2
v -3.4 7.7 4.3
v -3.3 7.7 3.9
v -3.3 7.7 4
v -3.3 7.7 4.2
v -3.3 7.7 4.3
v -2.7 7.7 3.9
v -2.7 7.7 4
v -2.7 7.7 4.2
v -2.7 7.7 4.3
v -2.6 7.7 3.9
v -2.6 7.7 4
v -2.6 7.7 4.2
v -2.6 7.7 4.3
v -2.5 7.7 4
v -2.5 7.7 4.2
v -3.4 7.8 4
v -3.4 7.8 4.2
v -3.3 7.8 3.9
v -3.3 7.8 4
v -3.3 7.8 4.2
v -3.3 7.8 4.3
v -3.2 7.8 4
v -3.2 7.8 4.2
v -3.1 7.8 4
v -3.1 7.8 4.2
v -2.8 7.8 3.9
v -2.8 7.8 4.3
v -2.7 7.8 3.9
v -2.7 7.8 4
v -2.7 7.8 4.2
v -2.7 7.8 4.3
v -2.6 7.8 4
v -2.6 7.8 4.2
v -3.2 7.9 4
v -3.2 7.9 4.2
v -3.1 7.9 4
v -3.1 7.9 4.2
v -3.3 8 4
v -3.3 8 4.2
v -3.2 8 4
v -3.2 8 4.2
v -3.3 7.4 3.9
v -2.8 7.4 3.9
v -2.7 7.4 3.9
v -3.4 7.5 3.9
v -3.3 7.5 3.9
v -3.2 7.5 3.9
v -3.1 7.5 3.9
v -3 7.5 3.9
v -2.9 7.5 3.9
v -2.7 7.5 3.9
v -2.6 7.5 3.9
v -3.4 7.6 3.9
v -3.3 7.6 3.9
v -3.2 7.6 3.9
v -3.1 7.6 3.9
v -3 7.6 3.9
v -2.9 7.6 3.9
v -2.8 7.6 3.9
v -2.6 7.6 3.9
v -3.4 7.7 3.9
v -3.3 7.7 3.9
v -3.2 7.7 3.9
v -3.1 7.7 3.9
v -3 7.7 3.9
v -2.9 7.7 3.9
v -2.8 7.7 3.9
v -2.7 7.7 3.9
v -2.6 7.7 3.9
v -3.3 7.8 3.9
v -2.8 7.8 3.9
v -2.7 7.8 3.9
v -3.3 7.2 4
v -3.2 7.2 4
v -3.3 7.3 4
v -3.2 7.3 4
v -3.1 7.3 4
v -3.4 7.4 4
v -3.3 7.4 4
v -3.2 7.4 4
v -3.1 7.4 4
v -2.7 7.4 4
v -2.6 7.4 4
v -3.5 7.5 4
v -3.4 7.5 4
v -3.3 7.5 4
v -2.7 7.5 4
v -2.6 7.5 4
v -2.5 7.5 4
v -3.5 7.6 4
v -3.4 7.6 4
v -2.6 7.6 4
v -2.5 7.6 4
v -3.5 7.7 4
v -3.4 7.7 4
v -3.3 7.7 4
v -2.7 7.7 4
v -2.6 7.7 4
v -2.5 7.7 4
v -3.4 7.8 4
v -3.3 7.8 4
v -3.2 7.8 4
v -3.1 7.8 4
v -2.7 7.8 4
v -2.6 7.8 4
v -3.3 7.9 4
v -3.2 7.9 4
v -3.1 7.9 4
v -3.3 8 4
v -3.2 8 4
v -3.3 7.2 4.2
v -3.2 7.2 4.2
v -3.3 7.3 4.2
v -3.2 7.3 4.2
v -3.1 7.3 4.2
v -3.4 7.4 4.2
v -3.3 7.4 4.2
v -3.2 7.4 4.2
v -3.1 7.4 4.2
v -2.7 7.4 4.2
v -2.6 7.4 4.2
v -3.5 7.5 4.2
v -3.4 7.5 4.2
v -3.3 7.5 4.2
v -2.7 7.5 4.2
v -2.6 7.5 4.2
v -2.5 7.5 4.2
v -3.5 7.6 4.2
v -3.4 7.6 4.2
v -2.6 7.6 4.2
v -2.5 7.6 4.2
v -3.5 7.7 4.2
v -3.4 7.7 4.2
v -3.3 7.7 4.2
v -2.7 7.7 4.2
v -2.6 7.7 4.2
v -2.5 7.7 4.2
v -3.4 7.8 4.2
v -3.3 7.8 4.2
v -3.2 7.8 4.2
v -3.1 7.8 4.2
v -2.7 7.8 4.2
v -2.6 7.8 4.2
v -3.3 7.9 4.2
v -3.2 7.9 4.2
v -3.1 7.9 4.2
v -3.3 8 4.2
v -3.2 8 4.2
v -3.3 7.4 4.3
v -2.8 7.4 4.3
v -2.7 7.4 4.3
v -3.4 7.5 4.3
v -3.3 7.5 4.3
v -3.2 7.5 4.3
v -3.1 7.5 4.3
v -3 7.5 4.3
v -2.9 7.5 4.3
v -2.7 7.5 4.3
v -2.6 7.5 4.3
v -3.4 7.6 4.3
v -3.3 7.6 4.3
v -3.2 7.6 4.3
v -3.1 7.6 4.3
v -3 7.6 4.3
v -2.9 7.6 4.3
v -2.8 7.6 4.3
v -2.6 7.6 4.3
v -3.4 7.7 4.3
v -3.3 7.7 4.3
v -3.2 7.7 4.3
v -3.1 7.7 4.3
v -3 7.7 4.3
v -2.9 7.7 4.3
v -2.8 7.7 4.3
v -2.7 7.7 4.3
v -2.6 7.7 4.3
v -3.3 7.8 4.3
v -2.8 7.8 4.3
v -2.7 7.8 4.3

# faces
f 4/9/1 2/9/1 1/9/1
f 5/3/1 3/3/1 2/3/1
f 5/9/1 2/9/1 4/9/1
f 6/3/1 3/3/1 5/3/1
f 11/9/1 8/9/1 7/9/1
f 12/3/1 9/3/1 8/3/1
f 12/9/1 8/9/1 11/9/1
f 13/3/1 9/3/1 12/3/1
f 15/9/1 11/9/1 10/9/1
f 16/9/1 11/9/1 15/9/1
f 18/3/1 14/3/1 13/3/1
f 19/3/1 14/3/1 18/3/1
f 20/9/1 17/9/1 16/9/1
f 21/3/1 18/3/1 17/3/1
f 21/9/1 17/9/1 20/9/1
f 22/3/1 18/3/1 21/3/1
f 29/10/1 24/10/1 23/10/1
f 30/10/1 24/10/1 29/10/1
f 31/1/1 26/1/1 25/1/1
f 32/1/1 26/1/1 31/1/1
f 35/5/1 28/5/1 27/5/1
f 36/6/1 29/6/1 28/6/1
f 36/5/1 28/5/1 35/5/1
f 37/6/1 29/6/1 36/6/1
f 40/6/1 33/6/1 32/6/1
f 41/5/1 34/5/1 33/5/1
f 41/6/1 33/6/1 40/6/1
f 42/5/1 34/5/1 41/5/1
f 43/10/1 38/10/1 37/10/1
f 44/10/1 38/10/1 43/10/1
f 45/1/1 40/1/1 39/1/1
f 46/1/1 40/1/1 45/1/1
f 47/5/2 48/5/2 51/5/2
f 51/5/2 48/5/2 52/5/2
f 49/5/2 50/5/2 53/5/2
f 53/5/2 50/5/2 54/5/2
f 55/4/2 56/4/2 59/4/2
f 59/4/2 56/4/2 60/4/2
f 57/4/2 58/4/2 61/4/2
f 61/4/2 58/4/2 62/4/2
f 63/8/2 64/8/2 67/8/2
f 67/8/2 64/8/2 68/8/2
f 65/7/2 66/7/2 69/7/2
f 69/7/2 66/7/2 70/7/2
f 71/8/2 72/8/2 75/8/2
f 75/8/2 72/8/2 76/8/2
f 73/7/2 74/7/2 77/7/2
f 77/7/2 74/7/2 78/7/2
f 79/8/2 80/8/2 83/8/2
f 80/7/2 81/7/2 84/7/2
f 83/8/2 80/8/2 84/8/2
f 84/7/2 81/7/2 85/7/2
f 82/8/2 83/8/2 87/8/2
f 87/8/2 83/8/2 88/8/2
f 85/7/2 86/7/2 90/7/2
f 90/7/2 86/7/2 91/7/2
f 88/8/2 89/8/2 92/8/2
f 89/7/2 90/7/2 93/7/2
f 92/8/2 89/8/2 93/8/2
f 93/7/2 90/7/2 94/7/2
f 95/8/2 96/8/2 98/8/2
f 96/7/2 97/7/2 99/7/2
f 98/8/2 96/8/2 99/8/2
f 99/7/2 97/7/2 100/7/2
f 103/5/3 102/5/3 101/5/3
f 104/5/3 102/5/3 103/5/3
f 107/4/3 106/4/3 105/4/3
f 108/4/3 106/4/3 107/4/3
f 112/9/3 110/9/3 109/9/3
f 113/9/3 110/9/3 112/9/3
f 115/10/3 112/10/3 111/10/3
f 116/10/3 114/10/3 113/10/3
f 117/10/3 115/10/3 111/10/3
f 118/10/3 114/10/3 116/10/3
f 119/10/3 117/10/3 111/10/3
f 119/10/3 118/10/3 117/10/3
f 120/10/3 114/10/3 118/10/3
f 120/10/3 118/10/3 119/10/3
f 121/8/3 120/8/3 119/8/3
f 122/8/3 120/8/3 121/8/3
f 123/8/3 120/8/3 122/8/3
f 124/8/3 120/8/3 123/8/3
f 125/8/3 123/8/3 122/8/3
f 126/8/3 123/8/3 125/8/3
f 130/9/3 128/9/3 127/9/3
f 131/9/3 128/9/3 130/9/3
f 133/9/3 130/9/3 129/9/3
f 134/9/3 130/9/3 133/9/3
f 135/9/3 132/9/3 131/9/3
f 136/9/3 132/9/3 135/9/3
f 141/8/3 138/8/3 137/8/3
f 142/8/3 138/8/3 141/8/3
f 143/8/3 140/8/3 139/8/3
f 144/8/3 140/8/3 143/8/3
f 145/8/3 143/8/3 142/8/3
f 146/8/3 143/8/3 145/8/3
f 147/3/4 148/3/4 150/3/4
f 150/3/4 148/3/4 151/3/4
f 149/3/4 150/3/4 153/3/4
f 153/3/4 150/3/4 154/3/4
f 151/3/4 152/3/4 155/3/4
f 155/3/4 152/3/4 156/3/4
f 157/7/4 158/7/4 161/7/4
f 161/7/4 158/7/4 162/7/4
f 159/7/4 160/7/4 163/7/4
f 163/7/4 160/7/4 164/7/4
f 162/7/4 163/7/4 165/7/4
f 165/7/4 163/7/4 166/7/4
f 167/3/4 168/3/4 170/3/4
f 170/3/4 168/3/4 171/3/4
f 169/1/4 170/1/4 173/1/4
f 171/1/4 172/1/4 174/1/4
f 169/1/4 173/1/4 175/1/4
f 174/1/4 172/1/4 176/1/4
f 169/1/4 175/1/4 177/1/4
f 175/1/4 176/1/4 177/1/4
f 176/1/4 172/1/4 178/1/4
f 177/1/4 176/1/4 178/1/4
f 177/7/4 178/7/4 179/7/4
f 179/7/4 178/7/4 180/7/4
f 180/7/4 178/7/4 181/7/4
f 181/7/4 178/7/4 182/7/4
f 180/7/4 181/7/4 183/7/4
f 183/7/4 181/7/4 184/7/4
f 185/4/4 186/4/4 187/4/4
f 187/4/4 186/4/4 188/4/4
f 189/5/4 190/5/4 191/5/4
f 191/5/4 190/5/4 192/5/4
f 197/10/5 194/10/5 193/10/5
f 198/10/5 194/10/5 197/10/5
f 199/10/5 194/10/5 198/10/5
f 200/10/5 194/10/5 199/10/5
f 201/10/5 194/10/5 200/10/5
f 202/8/5 195/8/5 194/8/5
f 204/9/5 197/9/5 196/9/5
f 205/10/5 198/10/5 197/10/5
f 205/9/5 197/9/5 204/9/5
f 206/2/5 199/2/5 198/2/5
f 206/10/5 198/10/5 205/10/5
f 207/10/5 200/10/5 199/10/5
f 207/2/5 199/2/5 206/2/5
f 208/2/5 201/2/5 200/2/5
f 208/10/5 200/10/5 207/10/5
f 209/10/5 194/10/5 201/10/5
f 209/2/5 201/2/5 208/2/5
f 210/8/5 203/8/5 202/8/5
f 210/10/5 194/10/5 209/10/5
f 210/8/5 202/8/5 194/8/5
f 211/8/5 203/8/5 210/8/5
f 212/3/5 205/3/5 204/3/5
f 213/2/5 206/2/5 205/2/5
f 213/3/5 205/3/5 212/3/5
f 214/1/5 207/1/5 206/1/5
f 214/2/5 206/2/5 213/2/5
f 215/2/5 208/2/5 207/2/5
f 215/1/5 207/1/5 214/1/5
f 216/1/5 209/1/5 208/1/5
f 216/2/5 208/2/5 215/2/5
f 217/2/5 210/2/5 209/2/5
f 217/1/5 209/1/5 216/1/5
f 218/7/5 211/7/5 210/7/5
f 218/2/5 210/2/5 217/2/5
f 219/7/5 211/7/5 218/7/5
f 220/7/5 211/7/5 219/7/5
f 221/1/5 214/1/5 213/1/5
f 221/1/5 215/1/5 214/1/5
f 221/1/5 218/1/5 217/1/5
f 221/1/5 217/1/5 216/1/5
f 221/1/5 216/1/5 215/1/5
f 222/7/5 219/7/5 218/7/5
f 222/1/5 218/1/5 221/1/5
f 223/7/5 219/7/5 222/7/5
f 226/5/5 225/5/5 224/5/5
f 227/5/5 225/5/5 226/5/5
f 230/6/5 227/6/5 226/6/5
f 231/4/5 228/4/5 227/4/5
f 231/6/5 227/6/5 230/6/5
f 232/4/5 228/4/5 231/4/5
f 236/9/5 230/9/5 229/9/5
f 237/9/5 230/9/5 236/9/5
f 238/8/5 234/8/5 233/8/5
f 239/8/5 234/8/5 238/8/5
f 241/9/5 236/9/5 235/9/5
f 242/9/5 236/9/5 241/9/5
f 243/8/5 240/8/5 239/8/5
f 244/8/5 240/8/5 243/8/5
f 245/3/5 242/3/5 241/3/5
f 246/3/5 242/3/5 245/3/5
f 249/7/5 244/7/5 243/7/5
f 250/7/5 244/7/5 249/7/5
f 251/3/5 247/3/5 246/3/5
f 252/3/5 247/3/5 251/3/5
f 255/7/5 249/7/5 248/7/5
f 256/7/5 249/7/5 255/7/5
f 257/6/5 253/6/5 252/6/5
f 258/4/5 254/4/5 253/4/5
f 258/6/5 253/6/5 257/6/5
f 259/4/5 254/4/5 258/4/5
f 260/5/5 258/5/5 257/5/5
f 261/5/5 258/5/5 260/5/5
f 262/5/6 263/5/6 264/5/6
f 264/5/6 263/5/6 265/5/6
f 264/6/6 265/6/6 268/6/6
f 265/4/6 266/4/6 269/4/6
f 268/6/6 265/6/6 269/6/6
f 269/4/6 266/4/6 270/4/6
f 267/9/6 268/9/6 274/9/6
f 274/9/6 268/9/6 275/9/6
f 271/8/6 272/8/6 276/8/6
f 276/8/6 272/8/6 277/8/6
f 273/9/6 274/9/6 279/9/6
f 279/9/6 274/9/6 280/9/6
f 277/8/6 278/8/6 281/8/6
f 281/8/6 278/8/6 282/8/6
f 279/3/6 280/3/6 283/3/6
f 283/3/6 280/3/6 284/3/6
f 281/7/6 282/7/6 287/7/6
f 287/7/6 282/7/6 288/7/6
f 284/3/6 285/3/6 289/3/6
f 289/3/6 285/3/6 290/3/6
f 286/7/6 287/7/6 293/7/6
f 293/7/6 287/7/6 294/7/6
f 290/6/6 291/6/6 295/6/6
f 291/4/6 292/4/6 296/4/6
f 295/6/6 291/6/6 296/6/6
f 296/4/6 292/4/6 297/4/6
f 295/5/6 296/5/6 298/5/6
f 298/5/6 296/5/6 299/5/6
f 300/10/6 301/10/6 304/10/6
f 304/10/6 301/10/6 305/10/6
f 305/10/6 301/10/6 306/10/6
f 306/10/6 301/10/6 307/10/6
f 307/10/6 301/10/6 308/10/6
f 301/8/6 302/8/6 309/8/6
f 303/9/6 304/9/6 311/9/6
f 304/10/6 305/10/6 312/10/6
f 311/9/6 304/9/6 312/9/6
f 305/2/6 306/2/6 313/2/6
f 312/10/6 305/10/6 313/10/6
f 306/10/6 307/10/6 314/10/6
f 313/2/6 306/2/6 314/2/6
f 307/2/6 308/2/6 315/2/6
f 314/10/6 307/10/6 315/10/6
f 308/10/6 301/10/6 316/10/6
f 315/2/6 308/2/6 316/2/6
f 309/8/6 310/8/6 317/8/6
f 316/10/6 301/10/6 317/10/6
f 301/8/6 309/8/6 317/8/6
f 317/8/6 310/8/6 318/8/6
f 311/3/6 312/3/6 319/3/6
f 312/2/6 313/2/6 320/2/6
f 319/3/6 312/3/6 320/3/6
f 313/1/6 314/1/6 321/1/6
f 320/2/6 313/2/6 321/2/6
f 314/2/6 315/2/6 322/2/6
f 321/1/6 314/1/6 322/1/6
f 315/1/6 316/1/6 323/1/6
f 322/2/6 315/2/6 323/2/6
f 316/2/6 317/2/6 324/2/6
f 323/1/6 316/1/6 324/1/6
f 317/7/6 318/7/6 325/7/6
f 324/2/6 317/2/6 325/2/6
f 325/7/6 318/7/6 326/7/6
f 326/7/6 318/7/6 327/7/6
f 320/1/6 321/1/6 328/1/6
f 321/1/6 322/1/6 328/1/6
f 324/1/6 325/1/6 328/1/6
f 323/1/6 324/1/6 328/1/6
f 322/1/6 323/1/6 328/1/6
f 325/7/6 326/7/6 329/7/6
f 328/1/6 325/1/6 329/1/6
f 329/7/6 326/7/6 330/7/6
