# MagicaVoxel @ Ephtracy

# group
o straw

# material
mtllib weapons-8-straw.mtl
usemtl palette

# normals
vn -1 0 0
vn 1 0 0
vn 0 0 1
vn 0 0 -1
vn 0 -1 0
vn 0 1 0

# texcoords
vt 0.724609 0.5
vt 0.728516 0.5
vt 0.732422 0.5
vt 0.935547 0.5
vt 0.943359 0.5
vt 0.947266 0.5
vt 0.982422 0.5

# verts
v -0.9 9.5 2.6
v -0.9 9.5 2.5
v -0.9 9.5 2.3
v -0.9 9.6 2.6
v -0.9 9.6 2.5
v -0.9 9.6 2.4
v -0.9 9.6 2.3
v -0.9 9.7 2.5
v -0.9 9.7 2.4
v -0.9 9.8 2.6
v -0.9 9.8 2.5
v -0.9 9.8 2.4
v -0.9 9.8 2.3
v -0.9 9.9 2.5
v -0.9 9.9 2.4
v -0.9 10 2.6
v -0.9 10 2.5
v -0.9 10 2.4
v -0.9 10 2.3
v -0.9 10.1 2.5
v -0.9 10.1 2.4
v -0.9 10.2 2.6
v -0.9 10.2 2.5
v -0.9 10.2 2.4
v -0.9 10.2 2.3
v -0.9 10.3 2.5
v -0.9 10.3 2.4
v -0.9 10.4 2.6
v -0.9 10.4 2.5
v -0.9 10.4 2.4
v -0.9 10.4 2.3
v -0.9 10.5 2.5
v -0.9 10.5 2.4
v -0.9 10.6 2.6
v -0.9 10.6 2.5
v -0.9 10.6 2.4
v -0.9 10.6 2.3
v -0.9 10.7 2.5
v -0.9 10.7 2.4
v -0.9 10.8 2.6
v -0.9 10.8 2.5
v -0.9 10.8 2.4
v -0.9 10.8 2.3
v -0.9 10.9 2.5
v -0.9 10.9 2.4
v -0.9 11 2.6
v -0.9 11 2.5
v -0.9 11 2.4
v -0.9 11 2.3
v -0.9 11.1 2.5
v -0.9 11.1 2.4
v -0.9 11.2 2.6
v -0.9 11.2 2.5
v -0.9 11.2 2.4
v -0.9 11.2 2.3
v -0.9 11.3 2.5
v -0.9 11.3 2.4
v -0.9 11.4 2.6
v -0.9 11.4 2.5
v -0.9 11.4 2.4
v -0.9 11.4 2.3
v -0.9 11.5 2.5
v -0.9 11.5 2.4
v -0.9 11.6 2.6
v -0.9 11.6 2.5
v -0.9 11.6 2.4
v -0.9 11.6 2.3
v -0.9 11.7 2.5
v -0.9 11.7 2.4
v -0.9 11.8 2.6
v -0.9 11.8 2.5
v -0.9 11.8 2.4
v -0.9 11.8 2.3
v -0.9 11.9 2.5
v -0.9 11.9 2.4
v -0.9 12 2.6
v -0.9 12 2.5
v -0.9 12 2.4
v -0.9 12 2.3
v -0.9 12.1 2.5
v -0.9 12.1 2.4
v -0.9 12.2 2.6
v -0.9 12.2 2.5
v -0.9 12.2 2.4
v -0.9 12.2 2.3
v -0.9 12.3 2.6
v -0.9 12.3 2.4
v -0.9 12.3 2.3
v -0.6 9.5 2.6
v -0.6 9.5 2.4
v -0.6 9.5 2.3
v -0.6 9.6 2.6
v -0.6 9.6 2.5
v -0.6 9.6 2.4
v -0.6 9.6 2.3
v -0.6 9.7 2.5
v -0.6 9.7 2.4
v -0.6 9.8 2.6
v -0.6 9.8 2.5
v -0.6 9.8 2.4
v -0.6 9.8 2.3
v -0.6 9.9 2.5
v -0.6 9.9 2.4
v -0.6 10 2.6
v -0.6 10 2.5
v -0.6 10 2.4
v -0.6 10 2.3
v -0.6 10.1 2.5
v -0.6 10.1 2.4
v -0.6 10.2 2.6
v -0.6 10.2 2.5
v -0.6 10.2 2.4
v -0.6 10.2 2.3
v -0.6 10.3 2.5
v -0.6 10.3 2.4
v -0.6 10.4 2.6
v -0.6 10.4 2.5
v -0.6 10.4 2.4
v -0.6 10.4 2.3
v -0.6 10.5 2.6
v -0.6 10.5 2.5
v -0.6 10.5 2.4
v -0.6 10.6 2.6
v -0.6 10.6 2.5
v -0.6 10.6 2.4
v -0.6 10.6 2.3
v -0.6 10.7 2.5
v -0.6 10.7 2.4
v -0.6 10.8 2.6
v -0.6 10.8 2.5
v -0.6 10.8 2.4
v -0.6 10.8 2.3
v -0.6 10.9 2.5
v -0.6 10.9 2.4
v -0.6 11 2.6
v -0.6 11 2.5
v -0.6 11 2.4
v -0.6 11 2.3
v -0.6 11.1 2.5
v -0.6 11.1 2.4
v -0.6 11.2 2.6
v -0.6 11.2 2.5
v -0.6 11.2 2.4
v -0.6 11.2 2.3
v -0.6 11.3 2.5
v -0.6 11.3 2.4
v -0.6 11.4 2.6
v -0.6 11.4 2.5
v -0.6 11.4 2.4
v -0.6 11.4 2.3
v -0.6 11.5 2.5
v -0.6 11.5 2.4
v -0.6 11.6 2.6
v -0.6 11.6 2.5
v -0.6 11.6 2.4
v -0.6 11.6 2.3
v -0.6 11.7 2.5
v -0.6 11.7 2.4
v -0.6 11.8 2.6
v -0.6 11.8 2.5
v -0.6 11.8 2.4
v -0.6 11.8 2.3
v -0.6 11.9 2.5
v -0.6 11.9 2.4
v -0.6 12 2.6
v -0.6 12 2.5
v -0.6 12 2.4
v -0.6 12 2.3
v -0.6 12.1 2.5
v -0.6 12.1 2.4
v -0.6 12.2 2.6
v -0.6 12.2 2.5
v -0.6 12.2 2.4
v -0.6 12.2 2.3
v -0.6 12.3 2.6
v -0.6 12.3 2.5
v -0.6 12.3 2.3
v -0.9 9.5 2.6
v -0.9 9.6 2.6
v -0.9 9.8 2.6
v -0.9 10 2.6
v -0.9 10.2 2.6
v -0.9 10.4 2.6
v -0.9 10.6 2.6
v -0.9 10.8 2.6
v -0.9 11 2.6
v -0.9 11.2 2.6
v -0.9 11.4 2.6
v -0.9 11.6 2.6
v -0.9 11.8 2.6
v -0.9 12 2.6
v -0.9 12.2 2.6
v -0.9 12.3 2.6
v -0.8 9.5 2.6
v -0.8 9.6 2.6
v -0.8 9.7 2.6
v -0.8 9.8 2.6
v -0.8 9.9 2.6
v -0.8 10 2.6
v -0.8 10.1 2.6
v -0.8 10.2 2.6
v -0.8 10.3 2.6
v -0.8 10.4 2.6
v -0.8 10.5 2.6
v -0.8 10.6 2.6
v -0.8 10.7 2.6
v -0.8 10.8 2.6
v -0.8 10.9 2.6
v -0.8 11 2.6
v -0.8 11.1 2.6
v -0.8 11.2 2.6
v -0.8 11.3 2.6
v -0.8 11.4 2.6
v -0.8 11.5 2.6
v -0.8 11.6 2.6
v -0.8 11.7 2.6
v -0.8 11.8 2.6
v -0.8 11.9 2.6
v -0.8 12 2.6
v -0.8 12.1 2.6
v -0.8 12.2 2.6
v -0.8 12.3 2.6
v -0.7 9.5 2.6
v -0.7 9.6 2.6
v -0.7 9.7 2.6
v -0.7 9.8 2.6
v -0.7 9.9 2.6
v -0.7 10 2.6
v -0.7 10.1 2.6
v -0.7 10.2 2.6
v -0.7 10.3 2.6
v -0.7 10.4 2.6
v -0.7 10.5 2.6
v -0.7 10.6 2.6
v -0.7 10.7 2.6
v -0.7 10.8 2.6
v -0.7 10.9 2.6
v -0.7 11 2.6
v -0.7 11.1 2.6
v -0.7 11.2 2.6
v -0.7 11.3 2.6
v -0.7 11.4 2.6
v -0.7 11.5 2.6
v -0.7 11.6 2.6
v -0.7 11.7 2.6
v -0.7 11.8 2.6
v -0.7 11.9 2.6
v -0.7 12 2.6
v -0.7 12.1 2.6
v -0.7 12.2 2.6
v -0.7 12.3 2.6
v -0.6 9.5 2.6
v -0.6 9.6 2.6
v -0.6 9.8 2.6
v -0.6 10 2.6
v -0.6 10.2 2.6
v -0.6 10.4 2.6
v -0.6 10.5 2.6
v -0.6 10.6 2.6
v -0.6 10.8 2.6
v -0.6 11 2.6
v -0.6 11.2 2.6
v -0.6 11.4 2.6
v -0.6 11.6 2.6
v -0.6 11.8 2.6
v -0.6 12 2.6
v -0.6 12.2 2.6
v -0.6 12.3 2.6
v -0.9 9.5 2.3
v -0.9 9.6 2.3
v -0.9 9.8 2.3
v -0.9 10 2.3
v -0.9 10.2 2.3
v -0.9 10.4 2.3
v -0.9 10.6 2.3
v -0.9 10.8 2.3
v -0.9 11 2.3
v -0.9 11.2 2.3
v -0.9 11.4 2.3
v -0.9 11.6 2.3
v -0.9 11.8 2.3
v -0.9 12 2.3
v -0.9 12.2 2.3
v -0.9 12.3 2.3
v -0.8 9.5 2.3
v -0.8 9.6 2.3
v -0.8 9.7 2.3
v -0.8 9.8 2.3
v -0.8 9.9 2.3
v -0.8 10 2.3
v -0.8 10.1 2.3
v -0.8 10.2 2.3
v -0.8 10.3 2.3
v -0.8 10.4 2.3
v -0.8 10.5 2.3
v -0.8 10.6 2.3
v -0.8 10.7 2.3
v -0.8 10.8 2.3
v -0.8 10.9 2.3
v -0.8 11 2.3
v -0.8 11.1 2.3
v -0.8 11.2 2.3
v -0.8 11.3 2.3
v -0.8 11.4 2.3
v -0.8 11.5 2.3
v -0.8 11.6 2.3
v -0.8 11.7 2.3
v -0.8 11.8 2.3
v -0.8 11.9 2.3
v -0.8 12 2.3
v -0.8 12.1 2.3
v -0.8 12.2 2.3
v -0.7 9.5 2.3
v -0.7 9.6 2.3
v -0.7 9.7 2.3
v -0.7 9.8 2.3
v -0.7 9.9 2.3
v -0.7 10 2.3
v -0.7 10.1 2.3
v -0.7 10.2 2.3
v -0.7 10.3 2.3
v -0.7 10.4 2.3
v -0.7 10.5 2.3
v -0.7 10.6 2.3
v -0.7 10.7 2.3
v -0.7 10.8 2.3
v -0.7 10.9 2.3
v -0.7 11 2.3
v -0.7 11.1 2.3
v -0.7 11.2 2.3
v -0.7 11.3 2.3
v -0.7 11.4 2.3
v -0.7 11.5 2.3
v -0.7 11.6 2.3
v -0.7 11.7 2.3
v -0.7 11.8 2.3
v -0.7 11.9 2.3
v -0.7 12 2.3
v -0.7 12.1 2.3
v -0.7 12.2 2.3
v -0.7 12.3 2.3
v -0.6 9.5 2.3
v -0.6 9.6 2.3
v -0.6 9.8 2.3
v -0.6 10 2.3
v -0.6 10.2 2.3
v -0.6 10.4 2.3
v -0.6 10.6 2.3
v -0.6 10.8 2.3
v -0.6 11 2.3
v -0.6 11.2 2.3
v -0.6 11.4 2.3
v -0.6 11.6 2.3
v -0.6 11.8 2.3
v -0.6 12 2.3
v -0.6 12.2 2.3
v -0.6 12.3 2.3
v -0.9 9.5 2.6
v -0.8 9.5 2.6
v -0.7 9.5 2.6
v -0.6 9.5 2.6
v -0.9 9.5 2.5
v -0.8 9.5 2.5
v -0.7 9.5 2.5
v -0.8 9.5 2.4
v -0.7 9.5 2.4
v -0.6 9.5 2.4
v -0.9 9.5 2.3
v -0.8 9.5 2.3
v -0.7 9.5 2.3
v -0.6 9.5 2.3
v -0.9 12.3 2.6
v -0.8 12.3 2.6
v -0.7 12.3 2.6
v -0.6 12.3 2.6
v -0.8 12.3 2.5
v -0.7 12.3 2.5
v -0.6 12.3 2.5
v -0.9 12.3 2.4
v -0.8 12.3 2.4
v -0.7 12.3 2.4
v -0.9 12.3 2.3
v -0.7 12.3 2.3
v -0.6 12.3 2.3

# faces
f 4/4/1 2/4/1 1/4/1
f 5/1/1 3/1/1 2/1/1
f 5/4/1 2/4/1 4/4/1
f 6/1/1 3/1/1 5/1/1
f 7/1/1 3/1/1 6/1/1
f 8/1/1 5/1/1 4/1/1
f 8/1/1 6/1/1 5/1/1
f 9/4/1 7/4/1 6/4/1
f 9/1/1 6/1/1 8/1/1
f 10/1/1 8/1/1 4/1/1
f 11/4/1 9/4/1 8/4/1
f 11/1/1 8/1/1 10/1/1
f 12/4/1 7/4/1 9/4/1
f 12/4/1 9/4/1 11/4/1
f 13/4/1 7/4/1 12/4/1
f 14/4/1 11/4/1 10/4/1
f 14/4/1 12/4/1 11/4/1
f 15/1/1 13/1/1 12/1/1
f 15/4/1 12/4/1 14/4/1
f 16/4/1 14/4/1 10/4/1
f 17/1/1 15/1/1 14/1/1
f 17/4/1 14/4/1 16/4/1
f 18/1/1 13/1/1 15/1/1
f 18/1/1 15/1/1 17/1/1
f 19/1/1 13/1/1 18/1/1
f 20/1/1 17/1/1 16/1/1
f 20/1/1 18/1/1 17/1/1
f 21/4/1 19/4/1 18/4/1
f 21/1/1 18/1/1 20/1/1
f 22/1/1 20/1/1 16/1/1
f 23/4/1 21/4/1 20/4/1
f 23/1/1 20/1/1 22/1/1
f 24/4/1 19/4/1 21/4/1
f 24/4/1 21/4/1 23/4/1
f 25/4/1 19/4/1 24/4/1
f 26/4/1 23/4/1 22/4/1
f 26/4/1 24/4/1 23/4/1
f 27/1/1 25/1/1 24/1/1
f 27/4/1 24/4/1 26/4/1
f 28/4/1 26/4/1 22/4/1
f 29/1/1 27/1/1 26/1/1
f 29/4/1 26/4/1 28/4/1
f 30/1/1 25/1/1 27/1/1
f 30/1/1 27/1/1 29/1/1
f 31/1/1 25/1/1 30/1/1
f 32/1/1 29/1/1 28/1/1
f 32/1/1 30/1/1 29/1/1
f 33/4/1 31/4/1 30/4/1
f 33/1/1 30/1/1 32/1/1
f 34/1/1 32/1/1 28/1/1
f 35/4/1 33/4/1 32/4/1
f 35/1/1 32/1/1 34/1/1
f 36/4/1 31/4/1 33/4/1
f 36/4/1 33/4/1 35/4/1
f 37/4/1 31/4/1 36/4/1
f 38/4/1 35/4/1 34/4/1
f 38/4/1 36/4/1 35/4/1
f 39/1/1 37/1/1 36/1/1
f 39/4/1 36/4/1 38/4/1
f 40/4/1 38/4/1 34/4/1
f 41/1/1 39/1/1 38/1/1
f 41/4/1 38/4/1 40/4/1
f 42/1/1 37/1/1 39/1/1
f 42/1/1 39/1/1 41/1/1
f 43/1/1 37/1/1 42/1/1
f 44/1/1 41/1/1 40/1/1
f 44/1/1 42/1/1 41/1/1
f 45/4/1 43/4/1 42/4/1
f 45/1/1 42/1/1 44/1/1
f 46/1/1 44/1/1 40/1/1
f 47/4/1 45/4/1 44/4/1
f 47/1/1 44/1/1 46/1/1
f 48/4/1 43/4/1 45/4/1
f 48/4/1 45/4/1 47/4/1
f 49/4/1 43/4/1 48/4/1
f 50/4/1 47/4/1 46/4/1
f 50/4/1 48/4/1 47/4/1
f 51/1/1 49/1/1 48/1/1
f 51/4/1 48/4/1 50/4/1
f 52/4/1 50/4/1 46/4/1
f 53/1/1 51/1/1 50/1/1
f 53/4/1 50/4/1 52/4/1
f 54/1/1 49/1/1 51/1/1
f 54/1/1 51/1/1 53/1/1
f 55/1/1 49/1/1 54/1/1
f 56/1/1 53/1/1 52/1/1
f 56/1/1 54/1/1 53/1/1
f 57/4/1 55/4/1 54/4/1
f 57/1/1 54/1/1 56/1/1
f 58/1/1 56/1/1 52/1/1
f 59/4/1 57/4/1 56/4/1
f 59/1/1 56/1/1 58/1/1
f 60/4/1 55/4/1 57/4/1
f 60/4/1 57/4/1 59/4/1
f 61/4/1 55/4/1 60/4/1
f 62/4/1 59/4/1 58/4/1
f 62/4/1 60/4/1 59/4/1
f 63/1/1 61/1/1 60/1/1
f 63/4/1 60/4/1 62/4/1
f 64/4/1 62/4/1 58/4/1
f 65/1/1 63/1/1 62/1/1
f 65/4/1 62/4/1 64/4/1
f 66/1/1 61/1/1 63/1/1
f 66/1/1 63/1/1 65/1/1
f 67/1/1 61/1/1 66/1/1
f 68/1/1 65/1/1 64/1/1
f 68/1/1 66/1/1 65/1/1
f 69/4/1 67/4/1 66/4/1
f 69/1/1 66/1/1 68/1/1
f 70/1/1 68/1/1 64/1/1
f 71/4/1 69/4/1 68/4/1
f 71/1/1 68/1/1 70/1/1
f 72/4/1 67/4/1 69/4/1
f 72/4/1 69/4/1 71/4/1
f 73/4/1 67/4/1 72/4/1
f 74/4/1 71/4/1 70/4/1
f 74/4/1 72/4/1 71/4/1
f 75/1/1 73/1/1 72/1/1
f 75/4/1 72/4/1 74/4/1
f 76/4/1 74/4/1 70/4/1
f 77/1/1 75/1/1 74/1/1
f 77/4/1 74/4/1 76/4/1
f 78/1/1 73/1/1 75/1/1
f 78/1/1 75/1/1 77/1/1
f 79/1/1 73/1/1 78/1/1
f 80/1/1 77/1/1 76/1/1
f 80/1/1 78/1/1 77/1/1
f 81/4/1 79/4/1 78/4/1
f 81/1/1 78/1/1 80/1/1
f 82/1/1 80/1/1 76/1/1
f 83/4/1 81/4/1 80/4/1
f 83/1/1 80/1/1 82/1/1
f 84/4/1 79/4/1 81/4/1
f 84/4/1 81/4/1 83/4/1
f 85/4/1 79/4/1 84/4/1
f 86/4/1 83/4/1 82/4/1
f 86/4/1 84/4/1 83/4/1
f 87/1/1 85/1/1 84/1/1
f 87/4/1 84/4/1 86/4/1
f 88/1/1 85/1/1 87/1/1
f 89/3/2 90/3/2 92/3/2
f 92/3/2 90/3/2 93/3/2
f 90/6/2 91/6/2 94/6/2
f 93/3/2 90/3/2 94/3/2
f 94/6/2 91/6/2 95/6/2
f 92/6/2 93/6/2 96/6/2
f 93/3/2 94/3/2 96/3/2
f 94/3/2 95/3/2 96/3/2
f 96/3/2 95/3/2 97/3/2
f 92/6/2 96/6/2 98/6/2
f 96/6/2 97/6/2 98/6/2
f 98/6/2 97/6/2 99/6/2
f 97/3/2 95/3/2 100/3/2
f 99/6/2 97/6/2 100/6/2
f 100/3/2 95/3/2 101/3/2
f 98/3/2 99/3/2 102/3/2
f 99/6/2 100/6/2 102/6/2
f 100/6/2 101/6/2 102/6/2
f 102/6/2 101/6/2 103/6/2
f 98/3/2 102/3/2 104/3/2
f 102/3/2 103/3/2 104/3/2
f 104/3/2 103/3/2 105/3/2
f 103/6/2 101/6/2 106/6/2
f 105/3/2 103/3/2 106/3/2
f 106/6/2 101/6/2 107/6/2
f 104/6/2 105/6/2 108/6/2
f 105/3/2 106/3/2 108/3/2
f 106/3/2 107/3/2 108/3/2
f 108/3/2 107/3/2 109/3/2
f 104/6/2 108/6/2 110/6/2
f 108/6/2 109/6/2 110/6/2
f 110/6/2 109/6/2 111/6/2
f 109/3/2 107/3/2 112/3/2
f 111/6/2 109/6/2 112/6/2
f 112/3/2 107/3/2 113/3/2
f 110/3/2 111/3/2 114/3/2
f 111/6/2 112/6/2 114/6/2
f 112/6/2 113/6/2 114/6/2
f 114/6/2 113/6/2 115/6/2
f 110/3/2 114/3/2 116/3/2
f 114/3/2 115/3/2 116/3/2
f 116/3/2 115/3/2 117/3/2
f 115/6/2 113/6/2 118/6/2
f 117/3/2 115/3/2 118/3/2
f 118/6/2 113/6/2 119/6/2
f 116/6/2 117/6/2 120/6/2
f 117/3/2 118/3/2 121/3/2
f 120/6/2 117/6/2 121/6/2
f 118/3/2 119/3/2 121/3/2
f 121/3/2 119/3/2 122/3/2
f 120/5/2 121/5/2 123/5/2
f 121/5/2 122/5/2 123/5/2
f 123/5/2 122/5/2 124/5/2
f 122/3/2 119/3/2 125/3/2
f 124/5/2 122/5/2 125/5/2
f 125/3/2 119/3/2 126/3/2
f 123/3/2 124/3/2 127/3/2
f 124/5/2 125/5/2 127/5/2
f 125/5/2 126/5/2 127/5/2
f 127/5/2 126/5/2 128/5/2
f 123/3/2 127/3/2 129/3/2
f 127/3/2 128/3/2 129/3/2
f 129/3/2 128/3/2 130/3/2
f 128/5/2 126/5/2 131/5/2
f 130/3/2 128/3/2 131/3/2
f 131/5/2 126/5/2 132/5/2
f 129/5/2 130/5/2 133/5/2
f 130/3/2 131/3/2 133/3/2
f 131/3/2 132/3/2 133/3/2
f 133/3/2 132/3/2 134/3/2
f 129/5/2 133/5/2 135/5/2
f 133/5/2 134/5/2 135/5/2
f 135/5/2 134/5/2 136/5/2
f 134/3/2 132/3/2 137/3/2
f 136/5/2 134/5/2 137/5/2
f 137/3/2 132/3/2 138/3/2
f 135/2/2 136/2/2 139/2/2
f 136/5/2 137/5/2 139/5/2
f 137/5/2 138/5/2 139/5/2
f 139/5/2 138/5/2 140/5/2
f 135/2/2 139/2/2 141/2/2
f 139/2/2 140/2/2 141/2/2
f 141/2/2 140/2/2 142/2/2
f 140/5/2 138/5/2 143/5/2
f 142/2/2 140/2/2 143/2/2
f 143/5/2 138/5/2 144/5/2
f 141/5/2 142/5/2 145/5/2
f 142/3/2 143/3/2 145/3/2
f 143/3/2 144/3/2 145/3/2
f 145/3/2 144/3/2 146/3/2
f 141/5/2 145/5/2 147/5/2
f 145/5/2 146/5/2 147/5/2
f 147/5/2 146/5/2 148/5/2
f 146/3/2 144/3/2 149/3/2
f 148/5/2 146/5/2 149/5/2
f 149/3/2 144/3/2 150/3/2
f 147/2/2 148/2/2 151/2/2
f 148/5/2 149/5/2 151/5/2
f 149/5/2 150/5/2 151/5/2
f 151/5/2 150/5/2 152/5/2
f 147/2/2 151/2/2 153/2/2
f 151/2/2 152/2/2 153/2/2
f 153/2/2 152/2/2 154/2/2
f 152/5/2 150/5/2 155/5/2
f 154/2/2 152/2/2 155/2/2
f 155/5/2 150/5/2 156/5/2
f 153/5/2 154/5/2 157/5/2
f 154/3/2 155/3/2 157/3/2
f 155/3/2 156/3/2 157/3/2
f 157/3/2 156/3/2 158/3/2
f 153/5/2 157/5/2 159/5/2
f 157/5/2 158/5/2 159/5/2
f 159/5/2 158/5/2 160/5/2
f 158/3/2 156/3/2 161/3/2
f 160/5/2 158/5/2 161/5/2
f 161/3/2 156/3/2 162/3/2
f 159/2/2 160/2/2 163/2/2
f 160/5/2 161/5/2 163/5/2
f 161/5/2 162/5/2 163/5/2
f 163/5/2 162/5/2 164/5/2
f 159/2/2 163/2/2 165/2/2
f 163/2/2 164/2/2 165/2/2
f 165/2/2 164/2/2 166/2/2
f 164/5/2 162/5/2 167/5/2
f 166/2/2 164/2/2 167/2/2
f 167/5/2 162/5/2 168/5/2
f 165/5/2 166/5/2 169/5/2
f 166/2/2 167/2/2 169/2/2
f 167/2/2 168/2/2 169/2/2
f 169/2/2 168/2/2 170/2/2
f 165/5/2 169/5/2 171/5/2
f 169/5/2 170/5/2 171/5/2
f 171/5/2 170/5/2 172/5/2
f 170/2/2 168/2/2 173/2/2
f 172/5/2 170/5/2 173/5/2
f 173/2/2 168/2/2 174/2/2
f 171/2/2 172/2/2 175/2/2
f 172/5/2 173/5/2 176/5/2
f 175/2/2 172/2/2 176/2/2
f 173/5/2 174/5/2 176/5/2
f 176/5/2 174/5/2 177/5/2
f 194/4/3 179/4/3 178/4/3
f 195/1/3 180/1/3 179/1/3
f 195/4/3 179/4/3 194/4/3
f 196/1/3 180/1/3 195/1/3
f 197/4/3 181/4/3 180/4/3
f 197/1/3 180/1/3 196/1/3
f 198/4/3 181/4/3 197/4/3
f 199/1/3 182/1/3 181/1/3
f 199/4/3 181/4/3 198/4/3
f 200/1/3 182/1/3 199/1/3
f 201/4/3 183/4/3 182/4/3
f 201/1/3 182/1/3 200/1/3
f 202/4/3 183/4/3 201/4/3
f 203/1/3 184/1/3 183/1/3
f 203/4/3 183/4/3 202/4/3
f 204/1/3 184/1/3 203/1/3
f 205/4/3 185/4/3 184/4/3
f 205/1/3 184/1/3 204/1/3
f 206/4/3 185/4/3 205/4/3
f 207/1/3 186/1/3 185/1/3
f 207/4/3 185/4/3 206/4/3
f 208/1/3 186/1/3 207/1/3
f 209/4/3 187/4/3 186/4/3
f 209/1/3 186/1/3 208/1/3
f 210/4/3 187/4/3 209/4/3
f 211/1/3 188/1/3 187/1/3
f 211/4/3 187/4/3 210/4/3
f 212/1/3 188/1/3 211/1/3
f 213/4/3 189/4/3 188/4/3
f 213/1/3 188/1/3 212/1/3
f 214/4/3 189/4/3 213/4/3
f 215/1/3 190/1/3 189/1/3
f 215/4/3 189/4/3 214/4/3
f 216/1/3 190/1/3 215/1/3
f 217/4/3 191/4/3 190/4/3
f 217/1/3 190/1/3 216/1/3
f 218/4/3 191/4/3 217/4/3
f 219/1/3 192/1/3 191/1/3
f 219/4/3 191/4/3 218/4/3
f 220/1/3 192/1/3 219/1/3
f 221/4/3 193/4/3 192/4/3
f 221/1/3 192/1/3 220/1/3
f 222/4/3 193/4/3 221/4/3
f 223/5/3 196/5/3 195/5/3
f 223/5/3 195/5/3 194/5/3
f 224/5/3 196/5/3 223/5/3
f 225/2/3 198/2/3 197/2/3
f 225/5/3 196/5/3 224/5/3
f 225/2/3 197/2/3 196/2/3
f 226/2/3 198/2/3 225/2/3
f 227/5/3 200/5/3 199/5/3
f 227/2/3 198/2/3 226/2/3
f 227/5/3 199/5/3 198/5/3
f 228/5/3 200/5/3 227/5/3
f 229/2/3 202/2/3 201/2/3
f 229/5/3 200/5/3 228/5/3
f 229/2/3 201/2/3 200/2/3
f 230/2/3 202/2/3 229/2/3
f 231/5/3 204/5/3 203/5/3
f 231/2/3 202/2/3 230/2/3
f 231/5/3 203/5/3 202/5/3
f 232/5/3 204/5/3 231/5/3
f 233/2/3 206/2/3 205/2/3
f 233/5/3 204/5/3 232/5/3
f 233/2/3 205/2/3 204/2/3
f 234/2/3 206/2/3 233/2/3
f 235/4/3 208/4/3 207/4/3
f 235/2/3 206/2/3 234/2/3
f 235/4/3 207/4/3 206/4/3
f 236/4/3 208/4/3 235/4/3
f 237/1/3 210/1/3 209/1/3
f 237/4/3 208/4/3 236/4/3
f 237/1/3 209/1/3 208/1/3
f 238/1/3 210/1/3 237/1/3
f 239/4/3 212/4/3 211/4/3
f 239/1/3 210/1/3 238/1/3
f 239/4/3 211/4/3 210/4/3
f 240/4/3 212/4/3 239/4/3
f 241/1/3 214/1/3 213/1/3
f 241/4/3 212/4/3 240/4/3
f 241/1/3 213/1/3 212/1/3
f 242/1/3 214/1/3 241/1/3
f 243/4/3 216/4/3 215/4/3
f 243/1/3 214/1/3 242/1/3
f 243/4/3 215/4/3 214/4/3
f 244/4/3 216/4/3 243/4/3
f 245/1/3 218/1/3 217/1/3
f 245/4/3 216/4/3 244/4/3
f 245/1/3 217/1/3 216/1/3
f 246/1/3 218/1/3 245/1/3
f 247/4/3 220/4/3 219/4/3
f 247/1/3 218/1/3 246/1/3
f 247/4/3 219/4/3 218/4/3
f 248/4/3 220/4/3 247/4/3
f 249/1/3 222/1/3 221/1/3
f 249/4/3 220/4/3 248/4/3
f 249/1/3 221/1/3 220/1/3
f 250/1/3 222/1/3 249/1/3
f 251/1/3 222/1/3 250/1/3
f 252/3/3 224/3/3 223/3/3
f 253/6/3 226/6/3 225/6/3
f 253/3/3 224/3/3 252/3/3
f 253/6/3 225/6/3 224/6/3
f 254/3/3 228/3/3 227/3/3
f 254/6/3 226/6/3 253/6/3
f 254/3/3 227/3/3 226/3/3
f 255/6/3 230/6/3 229/6/3
f 255/3/3 228/3/3 254/3/3
f 255/6/3 229/6/3 228/6/3
f 256/3/3 232/3/3 231/3/3
f 256/6/3 230/6/3 255/6/3
f 256/3/3 231/3/3 230/3/3
f 257/6/3 233/6/3 232/6/3
f 257/3/3 232/3/3 256/3/3
f 258/5/3 234/5/3 233/5/3
f 258/6/3 233/6/3 257/6/3
f 259/3/3 236/3/3 235/3/3
f 259/5/3 234/5/3 258/5/3
f 259/3/3 235/3/3 234/3/3
f 260/5/3 238/5/3 237/5/3
f 260/3/3 236/3/3 259/3/3
f 260/5/3 237/5/3 236/5/3
f 261/2/3 240/2/3 239/2/3
f 261/5/3 238/5/3 260/5/3
f 261/2/3 239/2/3 238/2/3
f 262/5/3 242/5/3 241/5/3
f 262/2/3 240/2/3 261/2/3
f 262/5/3 241/5/3 240/5/3
f 263/2/3 244/2/3 243/2/3
f 263/5/3 242/5/3 262/5/3
f 263/2/3 243/2/3 242/2/3
f 264/5/3 246/5/3 245/5/3
f 264/2/3 244/2/3 263/2/3
f 264/5/3 245/5/3 244/5/3
f 265/2/3 248/2/3 247/2/3
f 265/5/3 246/5/3 264/5/3
f 265/2/3 247/2/3 246/2/3
f 266/5/3 250/5/3 249/5/3
f 266/2/3 248/2/3 265/2/3
f 266/5/3 249/5/3 248/5/3
f 267/2/3 251/2/3 250/2/3
f 267/5/3 250/5/3 266/5/3
f 268/2/3 251/2/3 267/2/3
f 269/1/4 270/1/4 285/1/4
f 270/4/4 271/4/4 286/4/4
f 285/1/4 270/1/4 286/1/4
f 286/4/4 271/4/4 287/4/4
f 271/1/4 272/1/4 288/1/4
f 287/4/4 271/4/4 288/4/4
f 288/1/4 272/1/4 289/1/4
f 272/4/4 273/4/4 290/4/4
f 289/1/4 272/1/4 290/1/4
f 290/4/4 273/4/4 291/4/4
f 273/1/4 274/1/4 292/1/4
f 291/4/4 273/4/4 292/4/4
f 292/1/4 274/1/4 293/1/4
f 274/4/4 275/4/4 294/4/4
f 293/1/4 274/1/4 294/1/4
f 294/4/4 275/4/4 295/4/4
f 275/1/4 276/1/4 296/1/4
f 295/4/4 275/4/4 296/4/4
f 296/1/4 276/1/4 297/1/4
f 276/4/4 277/4/4 298/4/4
f 297/1/4 276/1/4 298/1/4
f 298/4/4 277/4/4 299/4/4
f 277/1/4 278/1/4 300/1/4
f 299/4/4 277/4/4 300/4/4
f 300/1/4 278/1/4 301/1/4
f 278/4/4 279/4/4 302/4/4
f 301/1/4 278/1/4 302/1/4
f 302/4/4 279/4/4 303/4/4
f 279/1/4 280/1/4 304/1/4
f 303/4/4 279/4/4 304/4/4
f 304/1/4 280/1/4 305/1/4
f 280/4/4 281/4/4 306/4/4
f 305/1/4 280/1/4 306/1/4
f 306/4/4 281/4/4 307/4/4
f 281/1/4 282/1/4 308/1/4
f 307/4/4 281/4/4 308/4/4
f 308/1/4 282/1/4 309/1/4
f 282/4/4 283/4/4 310/4/4
f 309/1/4 282/1/4 310/1/4
f 310/4/4 283/4/4 311/4/4
f 283/1/4 284/1/4 312/1/4
f 311/4/4 283/4/4 312/4/4
f 286/5/4 287/5/4 313/5/4
f 285/5/4 286/5/4 313/5/4
f 313/5/4 287/5/4 314/5/4
f 288/2/4 289/2/4 315/2/4
f 314/5/4 287/5/4 315/5/4
f 287/2/4 288/2/4 315/2/4
f 315/2/4 289/2/4 316/2/4
f 290/5/4 291/5/4 317/5/4
f 316/2/4 289/2/4 317/2/4
f 289/5/4 290/5/4 317/5/4
f 317/5/4 291/5/4 318/5/4
f 292/2/4 293/2/4 319/2/4
f 318/5/4 291/5/4 319/5/4
f 291/2/4 292/2/4 319/2/4
f 319/2/4 293/2/4 320/2/4
f 294/5/4 295/5/4 321/5/4
f 320/2/4 293/2/4 321/2/4
f 293/5/4 294/5/4 321/5/4
f 321/5/4 295/5/4 322/5/4
f 296/2/4 297/2/4 323/2/4
f 322/5/4 295/5/4 323/5/4
f 295/2/4 296/2/4 323/2/4
f 323/2/4 297/2/4 324/2/4
f 298/4/4 299/4/4 325/4/4
f 324/2/4 297/2/4 325/2/4
f 297/4/4 298/4/4 325/4/4
f 325/4/4 299/4/4 326/4/4
f 300/2/4 301/2/4 327/2/4
f 326/4/4 299/4/4 327/4/4
f 299/2/4 300/2/4 327/2/4
f 327/2/4 301/2/4 328/2/4
f 302/4/4 303/4/4 329/4/4
f 328/2/4 301/2/4 329/2/4
f 301/4/4 302/4/4 329/4/4
f 329/4/4 303/4/4 330/4/4
f 304/2/4 305/2/4 331/2/4
f 330/4/4 303/4/4 331/4/4
f 303/2/4 304/2/4 331/2/4
f 331/2/4 305/2/4 332/2/4
f 306/4/4 307/4/4 333/4/4
f 332/2/4 305/2/4 333/2/4
f 305/4/4 306/4/4 333/4/4
f 333/4/4 307/4/4 334/4/4
f 308/2/4 309/2/4 335/2/4
f 334/4/4 307/4/4 335/4/4
f 307/2/4 308/2/4 335/2/4
f 335/2/4 309/2/4 336/2/4
f 310/4/4 311/4/4 337/4/4
f 336/2/4 309/2/4 337/2/4
f 309/4/4 310/4/4 337/4/4
f 337/4/4 311/4/4 338/4/4
f 311/1/4 312/1/4 339/1/4
f 338/4/4 311/4/4 339/4/4
f 312/1/4 284/1/4 340/1/4
f 339/1/4 312/1/4 340/1/4
f 340/1/4 284/1/4 341/1/4
f 313/6/4 314/6/4 342/6/4
f 315/3/4 316/3/4 343/3/4
f 342/6/4 314/6/4 343/6/4
f 314/3/4 315/3/4 343/3/4
f 317/6/4 318/6/4 344/6/4
f 343/3/4 316/3/4 344/3/4
f 316/6/4 317/6/4 344/6/4
f 319/3/4 320/3/4 345/3/4
f 344/6/4 318/6/4 345/6/4
f 318/3/4 319/3/4 345/3/4
f 321/6/4 322/6/4 346/6/4
f 345/3/4 320/3/4 346/3/4
f 320/6/4 321/6/4 346/6/4
f 323/3/4 324/3/4 347/3/4
f 346/6/4 322/6/4 347/6/4
f 322/3/4 323/3/4 347/3/4
f 325/5/4 326/5/4 348/5/4
f 347/3/4 324/3/4 348/3/4
f 324/5/4 325/5/4 348/5/4
f 327/3/4 328/3/4 349/3/4
f 348/5/4 326/5/4 349/5/4
f 326/3/4 327/3/4 349/3/4
f 329/5/4 330/5/4 350/5/4
f 349/3/4 328/3/4 350/3/4
f 328/5/4 329/5/4 350/5/4
f 331/3/4 332/3/4 351/3/4
f 350/5/4 330/5/4 351/5/4
f 330/3/4 331/3/4 351/3/4
f 333/5/4 334/5/4 352/5/4
f 351/3/4 332/3/4 352/3/4
f 332/5/4 333/5/4 352/5/4
f 335/3/4 336/3/4 353/3/4
f 352/5/4 334/5/4 353/5/4
f 334/3/4 335/3/4 353/3/4
f 337/5/4 338/5/4 354/5/4
f 353/3/4 336/3/4 354/3/4
f 336/5/4 337/5/4 354/5/4
f 338/2/4 339/2/4 355/2/4
f 354/5/4 338/5/4 355/5/4
f 339/2/4 340/2/4 355/2/4
f 340/5/4 341/5/4 356/5/4
f 355/2/4 340/2/4 356/2/4
f 356/5/4 341/5/4 357/5/4
f 362/4/5 359/4/5 358/4/5
f 363/5/5 360/5/5 359/5/5
f 363/4/5 359/4/5 362/4/5
f 364/3/5 361/3/5 360/3/5
f 364/5/5 360/5/5 363/5/5
f 365/1/5 363/1/5 362/1/5
f 365/7/5 364/7/5 363/7/5
f 366/3/5 361/3/5 364/3/5
f 366/7/5 364/7/5 365/7/5
f 367/3/5 361/3/5 366/3/5
f 368/1/5 365/1/5 362/1/5
f 369/5/5 366/5/5 365/5/5
f 369/1/5 365/1/5 368/1/5
f 370/6/5 367/6/5 366/6/5
f 370/5/5 366/5/5 369/5/5
f 371/6/5 367/6/5 370/6/5
f 372/4/6 373/4/6 376/4/6
f 373/1/6 374/1/6 376/1/6
f 374/2/6 375/2/6 377/2/6
f 376/1/6 374/1/6 377/1/6
f 377/2/6 375/2/6 378/2/6
f 372/4/6 376/4/6 379/4/6
f 376/7/6 377/7/6 380/7/6
f 379/4/6 376/4/6 380/4/6
f 377/5/6 378/5/6 381/5/6
f 380/7/6 377/7/6 381/7/6
f 379/1/6 380/1/6 382/1/6
f 380/1/6 381/1/6 382/1/6
f 381/5/6 378/5/6 383/5/6
f 382/1/6 381/1/6 383/1/6
f 383/5/6 378/5/6 384/5/6
