# MagicaVoxel @ Ephtracy

# group
o bow

# material
mtllib weapons-5-bow.mtl
usemtl palette

# normals
vn -1 0 0
vn 1 0 0
vn 0 0 1
vn 0 0 -1
vn 0 -1 0
vn 0 1 0

# texcoords
vt 0.919922 0.5
vt 0.923828 0.5
vt 0.927734 0.5
vt 0.951172 0.5
vt 0.955078 0.5
vt 0.962891 0.5

# verts
v -5.6 3.6 2.5
v -5.6 3.6 2.3
v -5.6 3.7 2.5
v -5.6 3.7 2.3
v -5.6 6.7 2.5
v -5.6 6.7 2.3
v -5.6 6.8 2.5
v -5.6 6.8 2.3
v -5.5 3.7 2.5
v -5.5 3.7 2.3
v -5.5 3.8 2.5
v -5.5 3.8 2.4
v -5.5 3.8 2.3
v -5.5 4.3 2.5
v -5.5 4.3 2.4
v -5.5 4.8 2.5
v -5.5 4.8 2.4
v -5.5 5.6 2.5
v -5.5 5.6 2.4
v -5.5 6.1 2.5
v -5.5 6.1 2.4
v -5.5 6.6 2.5
v -5.5 6.6 2.4
v -5.5 6.6 2.3
v -5.5 6.7 2.5
v -5.5 6.7 2.3
v -5.1 3.8 2.5
v -5.1 3.8 2.3
v -5.1 3.9 2.5
v -5.1 3.9 2.3
v -5.1 6.5 2.5
v -5.1 6.5 2.3
v -5.1 6.6 2.5
v -5.1 6.6 2.3
v -5 3.9 2.5
v -5 3.9 2.3
v -5 4 2.5
v -5 4 2.3
v -5 4.6 2.5
v -5 4.6 2.3
v -5 4.8 2.5
v -5 4.8 2.3
v -5 5 2.5
v -5 5 2.3
v -5 5.1 2.5
v -5 5.1 2.3
v -5 5.2 2.5
v -5 5.2 2.3
v -5 5.3 2.5
v -5 5.3 2.3
v -5 5.4 2.5
v -5 5.4 2.3
v -5 5.6 2.5
v -5 5.6 2.3
v -5 5.8 2.5
v -5 5.8 2.3
v -5 6.4 2.5
v -5 6.4 2.3
v -5 6.5 2.5
v -5 6.5 2.3
v -4.9 4 2.5
v -4.9 4 2.3
v -4.9 4.6 2.5
v -4.9 4.6 2.3
v -4.9 5.8 2.5
v -4.9 5.8 2.3
v -4.9 6.4 2.5
v -4.9 6.4 2.3
v -5.4 3.8 2.5
v -5.4 3.8 2.4
v -5.4 4.3 2.5
v -5.4 4.3 2.4
v -5.4 4.8 2.5
v -5.4 4.8 2.4
v -5.4 5.6 2.5
v -5.4 5.6 2.4
v -5.4 6.1 2.5
v -5.4 6.1 2.4
v -5.4 6.6 2.5
v -5.4 6.6 2.4
v -5 3.6 2.5
v -5 3.6 2.3
v -5 3.7 2.5
v -5 3.7 2.3
v -5 6.7 2.5
v -5 6.7 2.3
v -5 6.8 2.5
v -5 6.8 2.3
v -4.9 3.7 2.5
v -4.9 3.7 2.3
v -4.9 3.8 2.5
v -4.9 3.8 2.3
v -4.9 6.6 2.5
v -4.9 6.6 2.3
v -4.9 6.7 2.5
v -4.9 6.7 2.3
v -4.8 3.8 2.5
v -4.8 3.8 2.3
v -4.8 3.9 2.5
v -4.8 3.9 2.3
v -4.8 4.9 2.5
v -4.8 4.9 2.3
v -4.8 5 2.5
v -4.8 5 2.3
v -4.8 5.1 2.5
v -4.8 5.1 2.3
v -4.8 5.2 2.5
v -4.8 5.2 2.3
v -4.8 5.3 2.5
v -4.8 5.3 2.3
v -4.8 5.4 2.5
v -4.8 5.4 2.3
v -4.8 5.5 2.5
v -4.8 5.5 2.3
v -4.8 6.5 2.5
v -4.8 6.5 2.3
v -4.8 6.6 2.5
v -4.8 6.6 2.3
v -4.7 3.9 2.5
v -4.7 3.9 2.3
v -4.7 4 2.5
v -4.7 4 2.3
v -4.7 4.3 2.5
v -4.7 4.3 2.3
v -4.7 4.9 2.5
v -4.7 4.9 2.3
v -4.7 5.5 2.5
v -4.7 5.5 2.3
v -4.7 6.1 2.5
v -4.7 6.1 2.3
v -4.7 6.4 2.5
v -4.7 6.4 2.3
v -4.7 6.5 2.5
v -4.7 6.5 2.3
v -5.6 3.6 2.5
v -5.6 3.7 2.5
v -5.6 6.7 2.5
v -5.6 6.8 2.5
v -5.5 3.7 2.5
v -5.5 3.8 2.5
v -5.5 4.3 2.5
v -5.5 4.8 2.5
v -5.5 5.6 2.5
v -5.5 6.1 2.5
v -5.5 6.6 2.5
v -5.5 6.7 2.5
v -5.4 3.8 2.5
v -5.4 4.3 2.5
v -5.4 4.8 2.5
v -5.4 5.6 2.5
v -5.4 6.1 2.5
v -5.4 6.6 2.5
v -5.1 3.8 2.5
v -5.1 3.9 2.5
v -5.1 6.5 2.5
v -5.1 6.6 2.5
v -5 3.6 2.5
v -5 3.7 2.5
v -5 3.8 2.5
v -5 3.9 2.5
v -5 4 2.5
v -5 4.6 2.5
v -5 4.8 2.5
v -5 5 2.5
v -5 5.1 2.5
v -5 5.2 2.5
v -5 5.3 2.5
v -5 5.4 2.5
v -5 5.6 2.5
v -5 5.8 2.5
v -5 6.4 2.5
v -5 6.5 2.5
v -5 6.6 2.5
v -5 6.7 2.5
v -5 6.8 2.5
v -4.9 3.7 2.5
v -4.9 3.8 2.5
v -4.9 3.9 2.5
v -4.9 4 2.5
v -4.9 4.6 2.5
v -4.9 4.8 2.5
v -4.9 5.6 2.5
v -4.9 5.8 2.5
v -4.9 6.4 2.5
v -4.9 6.5 2.5
v -4.9 6.6 2.5
v -4.9 6.7 2.5
v -4.8 3.8 2.5
v -4.8 3.9 2.5
v -4.8 4 2.5
v -4.8 4.3 2.5
v -4.8 4.6 2.5
v -4.8 4.9 2.5
v -4.8 5 2.5
v -4.8 5.1 2.5
v -4.8 5.2 2.5
v -4.8 5.3 2.5
v -4.8 5.4 2.5
v -4.8 5.5 2.5
v -4.8 5.8 2.5
v -4.8 6.1 2.5
v -4.8 6.4 2.5
v -4.8 6.5 2.5
v -4.8 6.6 2.5
v -4.7 3.9 2.5
v -4.7 4 2.5
v -4.7 4.3 2.5
v -4.7 4.9 2.5
v -4.7 5.5 2.5
v -4.7 6.1 2.5
v -4.7 6.4 2.5
v -4.7 6.5 2.5
v -5.5 3.8 2.4
v -5.5 4.3 2.4
v -5.5 4.8 2.4
v -5.5 5.6 2.4
v -5.5 6.1 2.4
v -5.5 6.6 2.4
v -5.4 3.8 2.4
v -5.4 4.3 2.4
v -5.4 4.8 2.4
v -5.4 5.6 2.4
v -5.4 6.1 2.4
v -5.4 6.6 2.4
v -5.6 3.6 2.3
v -5.6 3.7 2.3
v -5.6 6.7 2.3
v -5.6 6.8 2.3
v -5.5 3.7 2.3
v -5.5 3.8 2.3
v -5.5 6.6 2.3
v -5.5 6.7 2.3
v -5.1 3.8 2.3
v -5.1 3.9 2.3
v -5.1 6.5 2.3
v -5.1 6.6 2.3
v -5 3.6 2.3
v -5 3.7 2.3
v -5 3.8 2.3
v -5 3.9 2.3
v -5 4 2.3
v -5 4.6 2.3
v -5 4.8 2.3
v -5 5 2.3
v -5 5.1 2.3
v -5 5.2 2.3
v -5 5.3 2.3
v -5 5.4 2.3
v -5 5.6 2.3
v -5 5.8 2.3
v -5 6.4 2.3
v -5 6.5 2.3
v -5 6.6 2.3
v -5 6.7 2.3
v -5 6.8 2.3
v -4.9 3.7 2.3
v -4.9 3.8 2.3
v -4.9 3.9 2.3
v -4.9 4 2.3
v -4.9 4.6 2.3
v -4.9 4.8 2.3
v -4.9 5.6 2.3
v -4.9 5.8 2.3
v -4.9 6.4 2.3
v -4.9 6.5 2.3
v -4.9 6.6 2.3
v -4.9 6.7 2.3
v -4.8 3.8 2.3
v -4.8 3.9 2.3
v -4.8 4 2.3
v -4.8 4.3 2.3
v -4.8 4.6 2.3
v -4.8 4.9 2.3
v -4.8 5 2.3
v -4.8 5.1 2.3
v -4.8 5.2 2.3
v -4.8 5.3 2.3
v -4.8 5.4 2.3
v -4.8 5.5 2.3
v -4.8 5.8 2.3
v -4.8 6.1 2.3
v -4.8 6.4 2.3
v -4.8 6.5 2.3
v -4.8 6.6 2.3
v -4.7 3.9 2.3
v -4.7 4 2.3
v -4.7 4.3 2.3
v -4.7 4.9 2.3
v -4.7 5.5 2.3
v -4.7 6.1 2.3
v -4.7 6.4 2.3
v -4.7 6.5 2.3
v -5.6 3.6 2.5
v -5 3.6 2.5
v -5.6 3.6 2.3
v -5 3.6 2.3
v -5 3.7 2.5
v -4.9 3.7 2.5
v -5 3.7 2.3
v -4.9 3.7 2.3
v -4.9 3.8 2.5
v -4.8 3.8 2.5
v -4.9 3.8 2.3
v -4.8 3.8 2.3
v -4.8 3.9 2.5
v -4.7 3.9 2.5
v -4.8 3.9 2.3
v -4.7 3.9 2.3
v -5 4.6 2.5
v -4.9 4.6 2.5
v -5 4.6 2.3
v -4.9 4.6 2.3
v -4.8 5.5 2.5
v -4.7 5.5 2.5
v -4.8 5.5 2.3
v -4.7 5.5 2.3
v -5 6.4 2.5
v -4.9 6.4 2.5
v -5 6.4 2.3
v -4.9 6.4 2.3
v -5.1 6.5 2.5
v -5 6.5 2.5
v -5.1 6.5 2.3
v -5 6.5 2.3
v -5.4 6.6 2.5
v -5.1 6.6 2.5
v -5.5 6.6 2.4
v -5.4 6.6 2.4
v -5.5 6.6 2.3
v -5.1 6.6 2.3
v -5.6 6.7 2.5
v -5.5 6.7 2.5
v -5.6 6.7 2.3
v -5.5 6.7 2.3
v -5.6 3.7 2.5
v -5.5 3.7 2.5
v -5.6 3.7 2.3
v -5.5 3.7 2.3
v -5.4 3.8 2.5
v -5.1 3.8 2.5
v -5.5 3.8 2.4
v -5.4 3.8 2.4
v -5.5 3.8 2.3
v -5.1 3.8 2.3
v -5.1 3.9 2.5
v -5 3.9 2.5
v -5.1 3.9 2.3
v -5 3.9 2.3
v -5 4 2.5
v -4.9 4 2.5
v -5 4 2.3
v -4.9 4 2.3
v -4.8 4.9 2.5
v -4.7 4.9 2.5
v -4.8 4.9 2.3
v -4.7 4.9 2.3
v -5 5.8 2.5
v -4.9 5.8 2.5
v -5 5.8 2.3
v -4.9 5.8 2.3
v -4.8 6.5 2.5
v -4.7 6.5 2.5
v -4.8 6.5 2.3
v -4.7 6.5 2.3
v -4.9 6.6 2.5
v -4.8 6.6 2.5
v -4.9 6.6 2.3
v -4.8 6.6 2.3
v -5 6.7 2.5
v -4.9 6.7 2.5
v -5 6.7 2.3
v -4.9 6.7 2.3
v -5.6 6.8 2.5
v -5 6.8 2.5
v -5.6 6.8 2.3
v -5 6.8 2.3

# faces
f 3/1/1 2/1/1 1/1/1
f 4/1/1 2/1/1 3/1/1
f 7/1/1 6/1/1 5/1/1
f 8/1/1 6/1/1 7/1/1
f 11/2/1 10/2/1 9/2/1
f 12/2/1 10/2/1 11/2/1
f 13/2/1 10/2/1 12/2/1
f 14/6/1 12/6/1 11/6/1
f 15/6/1 12/6/1 14/6/1
f 16/5/1 15/5/1 14/5/1
f 17/5/1 15/5/1 16/5/1
f 18/4/1 17/4/1 16/4/1
f 19/4/1 17/4/1 18/4/1
f 20/5/1 19/5/1 18/5/1
f 21/5/1 19/5/1 20/5/1
f 22/6/1 21/6/1 20/6/1
f 23/6/1 21/6/1 22/6/1
f 25/2/1 23/2/1 22/2/1
f 25/2/1 24/2/1 23/2/1
f 26/2/1 24/2/1 25/2/1
f 29/2/1 28/2/1 27/2/1
f 30/2/1 28/2/1 29/2/1
f 33/2/1 32/2/1 31/2/1
f 34/2/1 32/2/1 33/2/1
f 37/2/1 36/2/1 35/2/1
f 38/2/1 36/2/1 37/2/1
f 41/2/1 40/2/1 39/2/1
f 42/2/1 40/2/1 41/2/1
f 43/3/1 42/3/1 41/3/1
f 44/3/1 42/3/1 43/3/1
f 45/4/1 44/4/1 43/4/1
f 46/4/1 44/4/1 45/4/1
f 47/6/1 46/6/1 45/6/1
f 48/6/1 46/6/1 47/6/1
f 49/4/1 48/4/1 47/4/1
f 50/4/1 48/4/1 49/4/1
f 51/6/1 50/6/1 49/6/1
f 52/6/1 50/6/1 51/6/1
f 53/3/1 52/3/1 51/3/1
f 54/3/1 52/3/1 53/3/1
f 55/2/1 54/2/1 53/2/1
f 56/2/1 54/2/1 55/2/1
f 59/2/1 58/2/1 57/2/1
f 60/2/1 58/2/1 59/2/1
f 63/2/1 62/2/1 61/2/1
f 64/2/1 62/2/1 63/2/1
f 67/2/1 66/2/1 65/2/1
f 68/2/1 66/2/1 67/2/1
f 69/6/2 70/6/2 71/6/2
f 71/6/2 70/6/2 72/6/2
f 71/5/2 72/5/2 73/5/2
f 73/5/2 72/5/2 74/5/2
f 73/4/2 74/4/2 75/4/2
f 75/4/2 74/4/2 76/4/2
f 75/5/2 76/5/2 77/5/2
f 77/5/2 76/5/2 78/5/2
f 77/6/2 78/6/2 79/6/2
f 79/6/2 78/6/2 80/6/2
f 81/1/2 82/1/2 83/1/2
f 83/1/2 82/1/2 84/1/2
f 85/1/2 86/1/2 87/1/2
f 87/1/2 86/1/2 88/1/2
f 89/1/2 90/1/2 91/1/2
f 91/1/2 90/1/2 92/1/2
f 93/1/2 94/1/2 95/1/2
f 95/1/2 94/1/2 96/1/2
f 97/1/2 98/1/2 99/1/2
f 99/1/2 98/1/2 100/1/2
f 101/3/2 102/3/2 103/3/2
f 103/3/2 102/3/2 104/3/2
f 103/4/2 104/4/2 105/4/2
f 105/4/2 104/4/2 106/4/2
f 105/6/2 106/6/2 107/6/2
f 107/6/2 106/6/2 108/6/2
f 107/4/2 108/4/2 109/4/2
f 109/4/2 108/4/2 110/4/2
f 109/6/2 110/6/2 111/6/2
f 111/6/2 110/6/2 112/6/2
f 111/3/2 112/3/2 113/3/2
f 113/3/2 112/3/2 114/3/2
f 115/1/2 116/1/2 117/1/2
f 117/1/2 116/1/2 118/1/2
f 119/1/2 120/1/2 121/1/2
f 121/1/2 120/1/2 122/1/2
f 121/2/2 122/2/2 123/2/2
f 123/2/2 122/2/2 124/2/2
f 123/3/2 124/3/2 125/3/2
f 125/3/2 124/3/2 126/3/2
f 127/3/2 128/3/2 129/3/2
f 129/3/2 128/3/2 130/3/2
f 129/2/2 130/2/2 131/2/2
f 131/2/2 130/2/2 132/2/2
f 131/1/2 132/1/2 133/1/2
f 133/1/2 132/1/2 134/1/2
f 139/1/3 136/1/3 135/1/3
f 146/1/3 138/1/3 137/1/3
f 147/2/3 140/2/3 139/2/3
f 147/6/3 141/6/3 140/6/3
f 148/5/3 142/5/3 141/5/3
f 148/6/3 141/6/3 147/6/3
f 149/4/3 143/4/3 142/4/3
f 149/5/3 142/5/3 148/5/3
f 150/5/3 144/5/3 143/5/3
f 150/4/3 143/4/3 149/4/3
f 151/6/3 145/6/3 144/6/3
f 151/5/3 144/5/3 150/5/3
f 152/2/3 146/2/3 145/2/3
f 152/6/3 145/6/3 151/6/3
f 153/2/3 147/2/3 139/2/3
f 156/2/3 146/2/3 152/2/3
f 157/1/3 139/1/3 135/1/3
f 158/2/3 154/2/3 153/2/3
f 158/1/3 139/1/3 157/1/3
f 158/2/3 153/2/3 139/2/3
f 159/2/3 154/2/3 158/2/3
f 160/2/3 154/2/3 159/2/3
f 172/2/3 156/2/3 155/2/3
f 173/2/3 146/2/3 156/2/3
f 173/2/3 156/2/3 172/2/3
f 174/1/3 138/1/3 146/1/3
f 174/2/3 146/2/3 173/2/3
f 175/1/3 138/1/3 174/1/3
f 176/1/3 159/1/3 158/1/3
f 177/2/3 160/2/3 159/2/3
f 177/1/3 159/1/3 176/1/3
f 177/2/3 161/2/3 160/2/3
f 178/2/3 161/2/3 177/2/3
f 179/2/3 161/2/3 178/2/3
f 180/2/3 163/2/3 162/2/3
f 181/3/3 164/3/3 163/3/3
f 181/2/3 163/2/3 180/2/3
f 182/2/3 170/2/3 169/2/3
f 182/3/3 169/3/3 168/3/3
f 183/2/3 170/2/3 182/2/3
f 184/2/3 173/2/3 172/2/3
f 184/2/3 172/2/3 171/2/3
f 185/2/3 173/2/3 184/2/3
f 186/1/3 174/1/3 173/1/3
f 186/2/3 173/2/3 185/2/3
f 187/1/3 174/1/3 186/1/3
f 188/1/3 178/1/3 177/1/3
f 189/2/3 179/2/3 178/2/3
f 189/1/3 178/1/3 188/1/3
f 189/2/3 180/2/3 179/2/3
f 190/2/3 180/2/3 189/2/3
f 191/2/3 180/2/3 190/2/3
f 192/3/3 181/3/3 180/3/3
f 192/2/3 180/2/3 191/2/3
f 193/3/3 164/3/3 181/3/3
f 193/3/3 181/3/3 192/3/3
f 194/4/3 165/4/3 164/4/3
f 194/3/3 164/3/3 193/3/3
f 195/6/3 166/6/3 165/6/3
f 195/4/3 165/4/3 194/4/3
f 196/4/3 167/4/3 166/4/3
f 196/6/3 166/6/3 195/6/3
f 197/6/3 168/6/3 167/6/3
f 197/4/3 167/4/3 196/4/3
f 198/3/3 183/3/3 182/3/3
f 198/6/3 168/6/3 197/6/3
f 198/3/3 182/3/3 168/3/3
f 199/3/3 183/3/3 198/3/3
f 200/2/3 185/2/3 184/2/3
f 200/3/3 183/3/3 199/3/3
f 200/2/3 184/2/3 183/2/3
f 201/2/3 185/2/3 200/2/3
f 202/2/3 185/2/3 201/2/3
f 203/1/3 186/1/3 185/1/3
f 203/2/3 185/2/3 202/2/3
f 204/1/3 186/1/3 203/1/3
f 205/1/3 190/1/3 189/1/3
f 206/2/3 191/2/3 190/2/3
f 206/1/3 190/1/3 205/1/3
f 207/3/3 192/3/3 191/3/3
f 207/2/3 191/2/3 206/2/3
f 207/3/3 193/3/3 192/3/3
f 208/3/3 193/3/3 207/3/3
f 209/3/3 201/3/3 200/3/3
f 209/3/3 200/3/3 199/3/3
f 210/2/3 202/2/3 201/2/3
f 210/3/3 201/3/3 209/3/3
f 211/1/3 203/1/3 202/1/3
f 211/2/3 202/2/3 210/2/3
f 212/1/3 203/1/3 211/1/3
f 213/6/4 214/6/4 219/6/4
f 214/5/4 215/5/4 220/5/4
f 219/6/4 214/6/4 220/6/4
f 215/4/4 216/4/4 221/4/4
f 220/5/4 215/5/4 221/5/4
f 216/5/4 217/5/4 222/5/4
f 221/4/4 216/4/4 222/4/4
f 217/6/4 218/6/4 223/6/4
f 222/5/4 217/5/4 223/5/4
f 223/6/4 218/6/4 224/6/4
f 225/1/4 226/1/4 229/1/4
f 227/1/4 228/1/4 232/1/4
f 229/2/4 230/2/4 233/2/4
f 231/2/4 232/2/4 236/2/4
f 225/1/4 229/1/4 237/1/4
f 233/2/4 234/2/4 238/2/4
f 237/1/4 229/1/4 238/1/4
f 229/2/4 233/2/4 238/2/4
f 238/2/4 234/2/4 239/2/4
f 239/2/4 234/2/4 240/2/4
f 235/2/4 236/2/4 252/2/4
f 236/2/4 232/2/4 253/2/4
f 252/2/4 236/2/4 253/2/4
f 232/1/4 228/1/4 254/1/4
f 253/2/4 232/2/4 254/2/4
f 254/1/4 228/1/4 255/1/4
f 238/1/4 239/1/4 256/1/4
f 239/2/4 240/2/4 257/2/4
f 256/1/4 239/1/4 257/1/4
f 240/2/4 241/2/4 257/2/4
f 257/2/4 241/2/4 258/2/4
f 258/2/4 241/2/4 259/2/4
f 242/2/4 243/2/4 260/2/4
f 243/3/4 244/3/4 261/3/4
f 260/2/4 243/2/4 261/2/4
f 249/2/4 250/2/4 262/2/4
f 248/3/4 249/3/4 262/3/4
f 262/2/4 250/2/4 263/2/4
f 252/2/4 253/2/4 264/2/4
f 251/2/4 252/2/4 264/2/4
f 264/2/4 253/2/4 265/2/4
f 253/1/4 254/1/4 266/1/4
f 265/2/4 253/2/4 266/2/4
f 266/1/4 254/1/4 267/1/4
f 257/1/4 258/1/4 268/1/4
f 258/2/4 259/2/4 269/2/4
f 268/1/4 258/1/4 269/1/4
f 259/2/4 260/2/4 269/2/4
f 269/2/4 260/2/4 270/2/4
f 270/2/4 260/2/4 271/2/4
f 260/3/4 261/3/4 272/3/4
f 271/2/4 260/2/4 272/2/4
f 261/3/4 244/3/4 273/3/4
f 272/3/4 261/3/4 273/3/4
f 244/4/4 245/4/4 274/4/4
f 273/3/4 244/3/4 274/3/4
f 245/6/4 246/6/4 275/6/4
f 274/4/4 245/4/4 275/4/4
f 246/4/4 247/4/4 276/4/4
f 275/6/4 246/6/4 276/6/4
f 247/6/4 248/6/4 277/6/4
f 276/4/4 247/4/4 277/4/4
f 262/3/4 263/3/4 278/3/4
f 277/6/4 248/6/4 278/6/4
f 248/3/4 262/3/4 278/3/4
f 278/3/4 263/3/4 279/3/4
f 264/2/4 265/2/4 280/2/4
f 279/3/4 263/3/4 280/3/4
f 263/2/4 264/2/4 280/2/4
f 280/2/4 265/2/4 281/2/4
f 281/2/4 265/2/4 282/2/4
f 265/1/4 266/1/4 283/1/4
f 282/2/4 265/2/4 283/2/4
f 283/1/4 266/1/4 284/1/4
f 269/1/4 270/1/4 285/1/4
f 270/2/4 271/2/4 286/2/4
f 285/1/4 270/1/4 286/1/4
f 271/3/4 272/3/4 287/3/4
f 286/2/4 271/2/4 287/2/4
f 272/3/4 273/3/4 287/3/4
f 287/3/4 273/3/4 288/3/4
f 280/3/4 281/3/4 289/3/4
f 279/3/4 280/3/4 289/3/4
f 281/2/4 282/2/4 290/2/4
f 289/3/4 281/3/4 290/3/4
f 282/1/4 283/1/4 291/1/4
f 290/2/4 282/2/4 291/2/4
f 291/1/4 283/1/4 292/1/4
f 295/1/5 294/1/5 293/1/5
f 296/1/5 294/1/5 295/1/5
f 299/1/5 298/1/5 297/1/5
f 300/1/5 298/1/5 299/1/5
f 303/1/5 302/1/5 301/1/5
f 304/1/5 302/1/5 303/1/5
f 307/1/5 306/1/5 305/1/5
f 308/1/5 306/1/5 307/1/5
f 311/2/5 310/2/5 309/2/5
f 312/2/5 310/2/5 311/2/5
f 315/3/5 314/3/5 313/3/5
f 316/3/5 314/3/5 315/3/5
f 319/2/5 318/2/5 317/2/5
f 320/2/5 318/2/5 319/2/5
f 323/2/5 322/2/5 321/2/5
f 324/2/5 322/2/5 323/2/5
f 328/2/5 326/2/5 325/2/5
f 329/2/5 328/2/5 327/2/5
f 330/2/5 326/2/5 328/2/5
f 330/2/5 328/2/5 329/2/5
f 333/1/5 332/1/5 331/1/5
f 334/1/5 332/1/5 333/1/5
f 335/1/6 336/1/6 337/1/6
f 337/1/6 336/1/6 338/1/6
f 339/2/6 340/2/6 342/2/6
f 341/2/6 342/2/6 343/2/6
f 342/2/6 340/2/6 344/2/6
f 343/2/6 342/2/6 344/2/6
f 345/2/6 346/2/6 347/2/6
f 347/2/6 346/2/6 348/2/6
f 349/2/6 350/2/6 351/2/6
f 351/2/6 350/2/6 352/2/6
f 353/3/6 354/3/6 355/3/6
f 355/3/6 354/3/6 356/3/6
f 357/2/6 358/2/6 359/2/6
f 359/2/6 358/2/6 360/2/6
f 361/1/6 362/1/6 363/1/6
f 363/1/6 362/1/6 364/1/6
f 365/1/6 366/1/6 367/1/6
f 367/1/6 366/1/6 368/1/6
f 369/1/6 370/1/6 371/1/6
f 371/1/6 370/1/6 372/1/6
f 373/1/6 374/1/6 375/1/6
f 375/1/6 374/1/6 376/1/6
