# MagicaVoxel @ Ephtracy

# group
o 

# material
mtllib weapons-7.mtl
usemtl palette

# normals
vn -1 0 0
vn 1 0 0
vn 0 0 1
vn 0 0 -1
vn 0 -1 0
vn 0 1 0

# texcoords
vt 0.193359 0.5
vt 0.205078 0.5
vt 0.294922 0.5
vt 0.298828 0.5
vt 0.302734 0.5
vt 0.333984 0.5
vt 0.341797 0.5
vt 0.349609 0.5
vt 0.353516 0.5
vt 0.357422 0.5
vt 0.935547 0.5

# verts
v 0.8 10.5 2.5
v 0.8 10.5 2.3
v 0.8 10.6 2.5
v 0.8 10.6 2.3
v 0.8 10.7 2.5
v 0.8 10.7 2.3
v 0.9 10.4 2.5
v 0.9 10.4 2.3
v 0.9 10.5 2.5
v 0.9 10.5 2.3
v 1 10.3 2.5
v 1 10.3 2.3
v 1 10.4 2.5
v 1 10.4 2.3
v 1.1 9.6 2.5
v 1.1 9.6 2.3
v 1.1 9.8 2.5
v 1.1 9.8 2.3
v 1.1 10.3 2.6
v 1.1 10.3 2.5
v 1.1 10.3 2.3
v 1.1 10.3 2.2
v 1.1 10.4 2.6
v 1.1 10.4 2.5
v 1.1 10.4 2.3
v 1.1 10.4 2.2
v 1.1 10.5 2.6
v 1.1 10.5 2.5
v 1.1 10.5 2.3
v 1.1 10.5 2.2
v 1.1 10.6 2.5
v 1.1 10.6 2.3
v 1.1 12.6 2.5
v 1.1 12.6 2.3
v 1.2 9.5 2.5
v 1.2 9.5 2.3
v 1.2 9.6 2.5
v 1.2 9.6 2.3
v 1.2 9.8 2.5
v 1.2 9.8 2.3
v 1.2 9.9 2.5
v 1.2 9.9 2.3
v 1.2 10 2.5
v 1.2 10 2.3
v 1.2 10.1 2.5
v 1.2 10.1 2.3
v 1.2 10.2 2.5
v 1.2 10.2 2.3
v 1.2 10.3 2.5
v 1.2 10.3 2.3
v 1.2 12.6 2.5
v 1.2 12.6 2.3
v 1.2 12.7 2.5
v 1.2 12.7 2.3
v 1.6 10.6 2.5
v 1.6 10.6 2.3
v 1.6 10.7 2.5
v 1.6 10.7 2.3
v 1 10.6 2.5
v 1 10.6 2.3
v 1 10.7 2.5
v 1 10.7 2.3
v 1.4 9.5 2.5
v 1.4 9.5 2.3
v 1.4 9.6 2.5
v 1.4 9.6 2.3
v 1.4 9.8 2.5
v 1.4 9.8 2.3
v 1.4 9.9 2.5
v 1.4 9.9 2.3
v 1.4 10 2.5
v 1.4 10 2.3
v 1.4 10.1 2.5
v 1.4 10.1 2.3
v 1.4 10.2 2.5
v 1.4 10.2 2.3
v 1.4 10.3 2.5
v 1.4 10.3 2.3
v 1.4 12.6 2.5
v 1.4 12.6 2.3
v 1.4 12.7 2.5
v 1.4 12.7 2.3
v 1.5 9.6 2.5
v 1.5 9.6 2.3
v 1.5 9.8 2.5
v 1.5 9.8 2.3
v 1.5 10.3 2.6
v 1.5 10.3 2.5
v 1.5 10.3 2.3
v 1.5 10.3 2.2
v 1.5 10.4 2.6
v 1.5 10.4 2.5
v 1.5 10.4 2.3
v 1.5 10.4 2.2
v 1.5 10.5 2.6
v 1.5 10.5 2.5
v 1.5 10.5 2.3
v 1.5 10.5 2.2
v 1.5 10.6 2.5
v 1.5 10.6 2.3
v 1.5 12.6 2.5
v 1.5 12.6 2.3
v 1.6 10.3 2.5
v 1.6 10.3 2.3
v 1.6 10.4 2.5
v 1.6 10.4 2.3
v 1.7 10.4 2.5
v 1.7 10.4 2.3
v 1.7 10.5 2.5
v 1.7 10.5 2.3
v 1.8 10.5 2.5
v 1.8 10.5 2.3
v 1.8 10.6 2.5
v 1.8 10.6 2.3
v 1.8 10.7 2.5
v 1.8 10.7 2.3
v 1.1 10.3 2.6
v 1.1 10.4 2.6
v 1.1 10.5 2.6
v 1.5 10.3 2.6
v 1.5 10.4 2.6
v 1.5 10.5 2.6
v 0.8 10.5 2.5
v 0.8 10.6 2.5
v 0.8 10.7 2.5
v 0.9 10.4 2.5
v 0.9 10.5 2.5
v 0.9 10.6 2.5
v 0.9 10.7 2.5
v 1 10.3 2.5
v 1 10.4 2.5
v 1 10.5 2.5
v 1 10.6 2.5
v 1 10.7 2.5
v 1.1 9.6 2.5
v 1.1 9.8 2.5
v 1.1 10.3 2.5
v 1.1 10.4 2.5
v 1.1 10.5 2.5
v 1.1 10.6 2.5
v 1.1 12.6 2.5
v 1.2 9.5 2.5
v 1.2 9.6 2.5
v 1.2 9.7 2.5
v 1.2 9.8 2.5
v 1.2 9.9 2.5
v 1.2 10 2.5
v 1.2 10.1 2.5
v 1.2 10.2 2.5
v 1.2 10.3 2.5
v 1.2 10.6 2.5
v 1.2 12.5 2.5
v 1.2 12.6 2.5
v 1.2 12.7 2.5
v 1.3 12.5 2.5
v 1.3 12.6 2.5
v 1.4 9.5 2.5
v 1.4 9.6 2.5
v 1.4 9.7 2.5
v 1.4 9.8 2.5
v 1.4 9.9 2.5
v 1.4 10 2.5
v 1.4 10.1 2.5
v 1.4 10.2 2.5
v 1.4 10.3 2.5
v 1.4 10.6 2.5
v 1.4 12.6 2.5
v 1.4 12.7 2.5
v 1.5 9.6 2.5
v 1.5 9.8 2.5
v 1.5 10.3 2.5
v 1.5 10.4 2.5
v 1.5 10.5 2.5
v 1.5 10.6 2.5
v 1.5 12.6 2.5
v 1.6 10.3 2.5
v 1.6 10.4 2.5
v 1.6 10.5 2.5
v 1.6 10.6 2.5
v 1.6 10.7 2.5
v 1.7 10.4 2.5
v 1.7 10.5 2.5
v 1.7 10.6 2.5
v 1.7 10.7 2.5
v 1.8 10.5 2.5
v 1.8 10.6 2.5
v 1.8 10.7 2.5
v 0.8 10.5 2.3
v 0.8 10.6 2.3
v 0.8 10.7 2.3
v 0.9 10.4 2.3
v 0.9 10.5 2.3
v 0.9 10.6 2.3
v 0.9 10.7 2.3
v 1 10.3 2.3
v 1 10.4 2.3
v 1 10.5 2.3
v 1 10.6 2.3
v 1 10.7 2.3
v 1.1 9.6 2.3
v 1.1 9.8 2.3
v 1.1 10.3 2.3
v 1.1 10.4 2.3
v 1.1 10.5 2.3
v 1.1 10.6 2.3
v 1.1 12.6 2.3
v 1.2 9.5 2.3
v 1.2 9.6 2.3
v 1.2 9.7 2.3
v 1.2 9.8 2.3
v 1.2 9.9 2.3
v 1.2 10 2.3
v 1.2 10.1 2.3
v 1.2 10.2 2.3
v 1.2 10.3 2.3
v 1.2 10.6 2.3
v 1.2 12.5 2.3
v 1.2 12.6 2.3
v 1.2 12.7 2.3
v 1.3 12.5 2.3
v 1.3 12.6 2.3
v 1.4 9.5 2.3
v 1.4 9.6 2.3
v 1.4 9.7 2.3
v 1.4 9.8 2.3
v 1.4 9.9 2.3
v 1.4 10 2.3
v 1.4 10.1 2.3
v 1.4 10.2 2.3
v 1.4 10.3 2.3
v 1.4 10.6 2.3
v 1.4 12.6 2.3
v 1.4 12.7 2.3
v 1.5 9.6 2.3
v 1.5 9.8 2.3
v 1.5 10.3 2.3
v 1.5 10.4 2.3
v 1.5 10.5 2.3
v 1.5 10.6 2.3
v 1.5 12.6 2.3
v 1.6 10.3 2.3
v 1.6 10.4 2.3
v 1.6 10.5 2.3
v 1.6 10.6 2.3
v 1.6 10.7 2.3
v 1.7 10.4 2.3
v 1.7 10.5 2.3
v 1.7 10.6 2.3
v 1.7 10.7 2.3
v 1.8 10.5 2.3
v 1.8 10.6 2.3
v 1.8 10.7 2.3
v 1.1 10.3 2.2
v 1.1 10.4 2.2
v 1.1 10.5 2.2
v 1.5 10.3 2.2
v 1.5 10.4 2.2
v 1.5 10.5 2.2
v 1.2 9.5 2.5
v 1.4 9.5 2.5
v 1.2 9.5 2.3
v 1.4 9.5 2.3
v 1.1 9.6 2.5
v 1.2 9.6 2.5
v 1.4 9.6 2.5
v 1.5 9.6 2.5
v 1.1 9.6 2.3
v 1.2 9.6 2.3
v 1.4 9.6 2.3
v 1.5 9.6 2.3
v 1.1 10.3 2.6
v 1.5 10.3 2.6
v 1 10.3 2.5
v 1.1 10.3 2.5
v 1.2 10.3 2.5
v 1.4 10.3 2.5
v 1.5 10.3 2.5
v 1.6 10.3 2.5
v 1 10.3 2.3
v 1.1 10.3 2.3
v 1.2 10.3 2.3
v 1.4 10.3 2.3
v 1.5 10.3 2.3
v 1.6 10.3 2.3
v 1.1 10.3 2.2
v 1.5 10.3 2.2
v 0.9 10.4 2.5
v 1 10.4 2.5
v 1.6 10.4 2.5
v 1.7 10.4 2.5
v 0.9 10.4 2.3
v 1 10.4 2.3
v 1.6 10.4 2.3
v 1.7 10.4 2.3
v 0.8 10.5 2.5
v 0.9 10.5 2.5
v 1.7 10.5 2.5
v 1.8 10.5 2.5
v 0.8 10.5 2.3
v 0.9 10.5 2.3
v 1.7 10.5 2.3
v 1.8 10.5 2.3
v 1.1 9.8 2.5
v 1.2 9.8 2.5
v 1.4 9.8 2.5
v 1.5 9.8 2.5
v 1.1 9.8 2.3
v 1.2 9.8 2.3
v 1.4 9.8 2.3
v 1.5 9.8 2.3
v 1.1 10.5 2.6
v 1.5 10.5 2.6
v 1.1 10.5 2.5
v 1.5 10.5 2.5
v 1.1 10.5 2.3
v 1.5 10.5 2.3
v 1.1 10.5 2.2
v 1.5 10.5 2.2
v 1 10.6 2.5
v 1.1 10.6 2.5
v 1.5 10.6 2.5
v 1.6 10.6 2.5
v 1 10.6 2.3
v 1.1 10.6 2.3
v 1.5 10.6 2.3
v 1.6 10.6 2.3
v 0.8 10.7 2.5
v 0.9 10.7 2.5
v 1 10.7 2.5
v 1.6 10.7 2.5
v 1.7 10.7 2.5
v 1.8 10.7 2.5
v 0.8 10.7 2.3
v 0.9 10.7 2.3
v 1 10.7 2.3
v 1.6 10.7 2.3
v 1.7 10.7 2.3
v 1.8 10.7 2.3
v 1.1 12.6 2.5
v 1.2 12.6 2.5
v 1.4 12.6 2.5
v 1.5 12.6 2.5
v 1.1 12.6 2.3
v 1.2 12.6 2.3
v 1.4 12.6 2.3
v 1.5 12.6 2.3
v 1.2 12.7 2.5
v 1.4 12.7 2.5
v 1.2 12.7 2.3
v 1.4 12.7 2.3

# faces
f 3/10/1 2/10/1 1/10/1
f 4/10/1 2/10/1 3/10/1
f 5/9/1 4/9/1 3/9/1
f 6/9/1 4/9/1 5/9/1
f 9/10/1 8/10/1 7/10/1
f 10/10/1 8/10/1 9/10/1
f 13/10/1 12/10/1 11/10/1
f 14/10/1 12/10/1 13/10/1
f 17/5/1 16/5/1 15/5/1
f 18/5/1 16/5/1 17/5/1
f 23/10/1 20/10/1 19/10/1
f 24/10/1 20/10/1 23/10/1
f 25/10/1 22/10/1 21/10/1
f 26/10/1 22/10/1 25/10/1
f 27/8/1 24/8/1 23/8/1
f 28/8/1 24/8/1 27/8/1
f 29/8/1 26/8/1 25/8/1
f 30/8/1 26/8/1 29/8/1
f 33/11/1 32/11/1 31/11/1
f 34/11/1 32/11/1 33/11/1
f 37/3/1 36/3/1 35/3/1
f 38/3/1 36/3/1 37/3/1
f 41/3/1 40/3/1 39/3/1
f 42/3/1 40/3/1 41/3/1
f 43/6/1 42/6/1 41/6/1
f 44/6/1 42/6/1 43/6/1
f 45/3/1 44/3/1 43/3/1
f 46/3/1 44/3/1 45/3/1
f 47/6/1 46/6/1 45/6/1
f 48/6/1 46/6/1 47/6/1
f 49/4/1 48/4/1 47/4/1
f 50/4/1 48/4/1 49/4/1
f 53/11/1 52/11/1 51/11/1
f 54/11/1 52/11/1 53/11/1
f 57/8/1 56/8/1 55/8/1
f 58/8/1 56/8/1 57/8/1
f 59/8/2 60/8/2 61/8/2
f 61/8/2 60/8/2 62/8/2
f 63/3/2 64/3/2 65/3/2
f 65/3/2 64/3/2 66/3/2
f 67/3/2 68/3/2 69/3/2
f 69/3/2 68/3/2 70/3/2
f 69/6/2 70/6/2 71/6/2
f 71/6/2 70/6/2 72/6/2
f 71/3/2 72/3/2 73/3/2
f 73/3/2 72/3/2 74/3/2
f 73/6/2 74/6/2 75/6/2
f 75/6/2 74/6/2 76/6/2
f 75/4/2 76/4/2 77/4/2
f 77/4/2 76/4/2 78/4/2
f 79/11/2 80/11/2 81/11/2
f 81/11/2 80/11/2 82/11/2
f 83/5/2 84/5/2 85/5/2
f 85/5/2 84/5/2 86/5/2
f 87/10/2 88/10/2 91/10/2
f 91/10/2 88/10/2 92/10/2
f 89/10/2 90/10/2 93/10/2
f 93/10/2 90/10/2 94/10/2
f 91/8/2 92/8/2 95/8/2
f 95/8/2 92/8/2 96/8/2
f 93/8/2 94/8/2 97/8/2
f 97/8/2 94/8/2 98/8/2
f 99/2/2 100/2/2 101/2/2
f 101/2/2 100/2/2 102/2/2
f 103/10/2 104/10/2 105/10/2
f 105/10/2 104/10/2 106/10/2
f 107/10/2 108/10/2 109/10/2
f 109/10/2 108/10/2 110/10/2
f 111/10/2 112/10/2 113/10/2
f 113/10/2 112/10/2 114/10/2
f 113/9/2 114/9/2 115/9/2
f 115/9/2 114/9/2 116/9/2
f 120/10/3 118/10/3 117/10/3
f 121/8/3 119/8/3 118/8/3
f 121/10/3 118/10/3 120/10/3
f 122/8/3 119/8/3 121/8/3
f 127/10/3 124/10/3 123/10/3
f 128/9/3 125/9/3 124/9/3
f 128/10/3 124/10/3 127/10/3
f 129/9/3 125/9/3 128/9/3
f 131/10/3 127/10/3 126/10/3
f 132/9/3 128/9/3 127/9/3
f 132/10/3 127/10/3 131/10/3
f 133/8/3 129/8/3 128/8/3
f 133/9/3 128/9/3 132/9/3
f 134/8/3 129/8/3 133/8/3
f 137/10/3 131/10/3 130/10/3
f 138/9/3 132/9/3 131/9/3
f 138/10/3 131/10/3 137/10/3
f 139/8/3 133/8/3 132/8/3
f 139/9/3 132/9/3 138/9/3
f 140/8/3 133/8/3 139/8/3
f 143/5/3 136/5/3 135/5/3
f 144/5/3 136/5/3 143/5/3
f 145/5/3 136/5/3 144/5/3
f 151/5/3 140/5/3 139/5/3
f 151/11/3 141/11/3 140/11/3
f 152/11/3 141/11/3 151/11/3
f 153/11/3 141/11/3 152/11/3
f 155/1/3 152/1/3 151/1/3
f 155/11/3 154/11/3 153/11/3
f 155/11/3 153/11/3 152/11/3
f 156/11/3 154/11/3 155/11/3
f 157/3/3 143/3/3 142/3/3
f 158/7/3 144/7/3 143/7/3
f 158/3/3 143/3/3 157/3/3
f 159/6/3 145/6/3 144/6/3
f 159/7/3 144/7/3 158/7/3
f 160/3/3 146/3/3 145/3/3
f 160/6/3 145/6/3 159/6/3
f 161/6/3 147/6/3 146/6/3
f 161/3/3 146/3/3 160/3/3
f 162/3/3 148/3/3 147/3/3
f 162/6/3 147/6/3 161/6/3
f 163/6/3 149/6/3 148/6/3
f 163/3/3 148/3/3 162/3/3
f 164/4/3 150/4/3 149/4/3
f 164/6/3 149/6/3 163/6/3
f 165/4/3 150/4/3 164/4/3
f 166/5/3 151/5/3 139/5/3
f 166/1/3 155/1/3 151/1/3
f 166/1/3 156/1/3 155/1/3
f 167/11/3 154/11/3 156/11/3
f 167/1/3 156/1/3 166/1/3
f 168/11/3 154/11/3 167/11/3
f 169/5/3 160/5/3 159/5/3
f 169/5/3 159/5/3 158/5/3
f 170/5/3 160/5/3 169/5/3
f 173/5/3 166/5/3 139/5/3
f 174/2/3 167/2/3 166/2/3
f 174/5/3 166/5/3 173/5/3
f 175/2/3 167/2/3 174/2/3
f 176/10/3 172/10/3 171/10/3
f 177/9/3 173/9/3 172/9/3
f 177/10/3 172/10/3 176/10/3
f 178/8/3 174/8/3 173/8/3
f 178/9/3 173/9/3 177/9/3
f 179/8/3 174/8/3 178/8/3
f 181/10/3 178/10/3 177/10/3
f 182/9/3 179/9/3 178/9/3
f 182/10/3 178/10/3 181/10/3
f 183/8/3 180/8/3 179/8/3
f 183/9/3 179/9/3 182/9/3
f 184/8/3 180/8/3 183/8/3
f 185/10/3 183/10/3 182/10/3
f 186/9/3 184/9/3 183/9/3
f 186/10/3 183/10/3 185/10/3
f 187/9/3 184/9/3 186/9/3
f 188/10/4 189/10/4 192/10/4
f 189/9/4 190/9/4 193/9/4
f 192/10/4 189/10/4 193/10/4
f 193/9/4 190/9/4 194/9/4
f 191/10/4 192/10/4 196/10/4
f 192/9/4 193/9/4 197/9/4
f 196/10/4 192/10/4 197/10/4
f 193/8/4 194/8/4 198/8/4
f 197/9/4 193/9/4 198/9/4
f 198/8/4 194/8/4 199/8/4
f 195/10/4 196/10/4 202/10/4
f 196/9/4 197/9/4 203/9/4
f 202/10/4 196/10/4 203/10/4
f 197/8/4 198/8/4 204/8/4
f 203/9/4 197/9/4 204/9/4
f 204/8/4 198/8/4 205/8/4
f 200/5/4 201/5/4 208/5/4
f 208/5/4 201/5/4 209/5/4
f 209/5/4 201/5/4 210/5/4
f 204/5/4 205/5/4 216/5/4
f 205/11/4 206/11/4 216/11/4
f 216/11/4 206/11/4 217/11/4
f 217/11/4 206/11/4 218/11/4
f 216/1/4 217/1/4 220/1/4
f 218/11/4 219/11/4 220/11/4
f 217/11/4 218/11/4 220/11/4
f 220/11/4 219/11/4 221/11/4
f 207/3/4 208/3/4 222/3/4
f 208/7/4 209/7/4 223/7/4
f 222/3/4 208/3/4 223/3/4
f 209/6/4 210/6/4 224/6/4
f 223/7/4 209/7/4 224/7/4
f 210/3/4 211/3/4 225/3/4
f 224/6/4 210/6/4 225/6/4
f 211/6/4 212/6/4 226/6/4
f 225/3/4 211/3/4 226/3/4
f 212/3/4 213/3/4 227/3/4
f 226/6/4 212/6/4 227/6/4
f 213/6/4 214/6/4 228/6/4
f 227/3/4 213/3/4 228/3/4
f 214/4/4 215/4/4 229/4/4
f 228/6/4 214/6/4 229/6/4
f 229/4/4 215/4/4 230/4/4
f 204/5/4 216/5/4 231/5/4
f 216/1/4 220/1/4 231/1/4
f 220/1/4 221/1/4 231/1/4
f 221/11/4 219/11/4 232/11/4
f 231/1/4 221/1/4 232/1/4
f 232/11/4 219/11/4 233/11/4
f 224/5/4 225/5/4 234/5/4
f 223/5/4 224/5/4 234/5/4
f 234/5/4 225/5/4 235/5/4
f 204/5/4 231/5/4 238/5/4
f 231/2/4 232/2/4 239/2/4
f 238/5/4 231/5/4 239/5/4
f 239/2/4 232/2/4 240/2/4
f 236/10/4 237/10/4 241/10/4
f 237/9/4 238/9/4 242/9/4
f 241/10/4 237/10/4 242/10/4
f 238/8/4 239/8/4 243/8/4
f 242/9/4 238/9/4 243/9/4
f 243/8/4 239/8/4 244/8/4
f 242/10/4 243/10/4 246/10/4
f 243/9/4 244/9/4 247/9/4
f 246/10/4 243/10/4 247/10/4
f 244/8/4 245/8/4 248/8/4
f 247/9/4 244/9/4 248/9/4
f 248/8/4 245/8/4 249/8/4
f 247/10/4 248/10/4 250/10/4
f 248/9/4 249/9/4 251/9/4
f 250/10/4 248/10/4 251/10/4
f 251/9/4 249/9/4 252/9/4
f 253/10/4 254/10/4 256/10/4
f 254/8/4 255/8/4 257/8/4
f 256/10/4 254/10/4 257/10/4
f 257/8/4 255/8/4 258/8/4
f 261/3/5 260/3/5 259/3/5
f 262/3/5 260/3/5 261/3/5
f 267/5/5 264/5/5 263/5/5
f 268/5/5 264/5/5 267/5/5
f 269/5/5 266/5/5 265/5/5
f 270/5/5 266/5/5 269/5/5
f 274/10/5 272/10/5 271/10/5
f 275/10/5 272/10/5 274/10/5
f 276/10/5 272/10/5 275/10/5
f 277/10/5 272/10/5 276/10/5
f 279/10/5 274/10/5 273/10/5
f 279/10/5 275/10/5 274/10/5
f 280/10/5 275/10/5 279/10/5
f 281/10/5 275/10/5 280/10/5
f 282/10/5 278/10/5 277/10/5
f 282/10/5 277/10/5 276/10/5
f 283/10/5 278/10/5 282/10/5
f 284/10/5 278/10/5 283/10/5
f 285/10/5 281/10/5 280/10/5
f 285/10/5 283/10/5 282/10/5
f 285/10/5 282/10/5 281/10/5
f 286/10/5 283/10/5 285/10/5
f 291/10/5 288/10/5 287/10/5
f 292/10/5 288/10/5 291/10/5
f 293/10/5 290/10/5 289/10/5
f 294/10/5 290/10/5 293/10/5
f 299/10/5 296/10/5 295/10/5
f 300/10/5 296/10/5 299/10/5
f 301/10/5 298/10/5 297/10/5
f 302/10/5 298/10/5 301/10/5
f 303/5/6 304/5/6 307/5/6
f 307/5/6 304/5/6 308/5/6
f 305/5/6 306/5/6 309/5/6
f 309/5/6 306/5/6 310/5/6
f 311/8/6 312/8/6 313/8/6
f 313/8/6 312/8/6 314/8/6
f 315/8/6 316/8/6 317/8/6
f 317/8/6 316/8/6 318/8/6
f 319/8/6 320/8/6 323/8/6
f 323/8/6 320/8/6 324/8/6
f 321/8/6 322/8/6 325/8/6
f 325/8/6 322/8/6 326/8/6
f 327/9/6 328/9/6 333/9/6
f 328/8/6 329/8/6 334/8/6
f 333/9/6 328/9/6 334/9/6
f 334/8/6 329/8/6 335/8/6
f 330/8/6 331/8/6 336/8/6
f 331/9/6 332/9/6 337/9/6
f 336/8/6 331/8/6 337/8/6
f 337/9/6 332/9/6 338/9/6
f 339/11/6 340/11/6 343/11/6
f 343/11/6 340/11/6 344/11/6
f 341/2/6 342/2/6 345/2/6
f 345/2/6 342/2/6 346/2/6
f 347/11/6 348/11/6 349/11/6
f 349/11/6 348/11/6 350/11/6
