# MagicaVoxel @ Ephtracy

# group
o hammer1

# material
mtllib weapons-3-hammer1.mtl
usemtl palette

# normals
vn -1 0 0
vn 1 0 0
vn 0 0 1
vn 0 0 -1
vn 0 -1 0
vn 0 1 0

# texcoords
vt 0.888672 0.5
vt 0.892578 0.5
vt 0.896484 0.5
vt 0.962891 0.5
vt 0.966797 0.5
vt 0.970703 0.5
vt 0.974609 0.5
vt 0.978516 0.5
vt 0.982422 0.5

# verts
v -5.4 14.1 0.1
v -5.4 14.1 -0.1
v -5.4 14.2 0.1
v -5.4 14.2 -0.1
v -5.4 14.3 0.1
v -5.4 14.3 -0.1
v -5.3 14.3 0.1
v -5.3 14.3 -0.1
v -5.3 14.4 0.1
v -5.3 14.4 -0.1
v -5.2 14.1 0.2
v -5.2 14.1 0.1
v -5.2 14.1 -0.1
v -5.2 14.1 -0.2
v -5.2 14.2 0.2
v -5.2 14.2 0.1
v -5.2 14.2 -0.1
v -5.2 14.2 -0.2
v -5.2 14.4 0.2
v -5.2 14.4 0.1
v -5.2 14.4 -0.1
v -5.2 14.4 -0.2
v -5.2 14.5 0.1
v -5.2 14.5 -0.1
v -5.1 14 0.1
v -5.1 14 -0.1
v -5.1 14.1 0.3
v -5.1 14.1 0.2
v -5.1 14.1 0.1
v -5.1 14.1 -0.1
v -5.1 14.1 -0.2
v -5.1 14.1 -0.3
v -5.1 14.2 0.3
v -5.1 14.2 0.2
v -5.1 14.2 -0.2
v -5.1 14.2 -0.3
v -5.1 14.4 0.3
v -5.1 14.4 0.2
v -5.1 14.4 0.1
v -5.1 14.4 -0.1
v -5.1 14.4 -0.2
v -5.1 14.4 -0.3
v -5.1 14.5 0.2
v -5.1 14.5 0.1
v -5.1 14.5 -0.1
v -5.1 14.5 -0.2
v -5 14.4 0.3
v -5 14.4 0.2
v -5 14.4 -0.2
v -5 14.4 -0.3
v -5 14.5 0.3
v -5 14.5 0.2
v -5 14.5 0.1
v -5 14.5 -0.1
v -5 14.5 -0.2
v -5 14.5 -0.3
v -5 14.6 0.1
v -5 14.6 -0.1
v -4.9 12.7 0.1
v -4.9 12.7 -0.1
v -4.9 14 0.1
v -4.9 14 -0.1
v -4.9 14.5 0.2
v -4.9 14.5 0.1
v -4.9 14.5 -0.1
v -4.9 14.5 -0.2
v -4.9 14.6 0.2
v -4.9 14.6 0.1
v -4.9 14.6 -0.1
v -4.9 14.6 -0.2
v -4.9 14.7 0.1
v -4.9 14.7 -0.1
v -4.8 14 0.2
v -4.8 14 0.1
v -4.8 14 -0.1
v -4.8 14 -0.2
v -4.8 14.1 0.2
v -4.8 14.1 0.1
v -4.8 14.1 -0.1
v -4.8 14.1 -0.2
v -4.4 13.9 0.2
v -4.4 13.9 -0.2
v -4.4 14 0.3
v -4.4 14 0.2
v -4.4 14 -0.2
v -4.4 14 -0.3
v -4.4 14.1 0.4
v -4.4 14.1 0.3
v -4.4 14.1 0.2
v -4.4 14.1 -0.2
v -4.4 14.1 -0.3
v -4.4 14.1 -0.4
v -4.4 14.4 0.3
v -4.4 14.4 -0.3
v -4.4 14.5 0.4
v -4.4 14.5 0.3
v -4.4 14.5 0.2
v -4.4 14.5 -0.2
v -4.4 14.5 -0.3
v -4.4 14.5 -0.4
v -4.4 14.6 0.3
v -4.4 14.6 0.2
v -4.4 14.6 -0.2
v -4.4 14.6 -0.3
v -4.4 14.7 0.2
v -4.4 14.7 -0.2
v -4.7 12.7 0.1
v -4.7 12.7 -0.1
v -4.7 12.9 0.1
v -4.7 12.9 -0.1
v -4.7 13.8 0.1
v -4.7 13.8 -0.1
v -4.7 13.9 0.1
v -4.7 13.9 -0.1
v -4.7 14 0.1
v -4.7 14 -0.1
v -4.7 14.6 0.1
v -4.7 14.6 -0.1
v -4.7 14.7 0.1
v -4.7 14.7 -0.1
v -4.2 13.9 0.2
v -4.2 13.9 0
v -4.2 13.9 -0.1
v -4.2 13.9 -0.2
v -4.2 14 0.3
v -4.2 14 0.2
v -4.2 14 0.1
v -4.2 14 0
v -4.2 14 -0.1
v -4.2 14 -0.2
v -4.2 14 -0.3
v -4.2 14.1 0.4
v -4.2 14.1 0.3
v -4.2 14.1 0.2
v -4.2 14.1 0.1
v -4.2 14.1 0
v -4.2 14.1 -0.2
v -4.2 14.1 -0.3
v -4.2 14.1 -0.4
v -4.2 14.2 0.4
v -4.2 14.2 0.3
v -4.2 14.2 0.2
v -4.2 14.2 0.1
v -4.2 14.2 -0.1
v -4.2 14.2 -0.2
v -4.2 14.2 -0.3
v -4.2 14.2 -0.4
v -4.2 14.3 0.4
v -4.2 14.3 0.3
v -4.2 14.3 0.2
v -4.2 14.3 0
v -4.2 14.3 -0.1
v -4.2 14.3 -0.2
v -4.2 14.3 -0.3
v -4.2 14.3 -0.4
v -4.2 14.4 0.4
v -4.2 14.4 0.3
v -4.2 14.4 0.1
v -4.2 14.4 0
v -4.2 14.4 -0.1
v -4.2 14.4 -0.2
v -4.2 14.4 -0.3
v -4.2 14.5 0.4
v -4.2 14.5 0.3
v -4.2 14.5 0.2
v -4.2 14.5 0.1
v -4.2 14.5 0
v -4.2 14.5 -0.1
v -4.2 14.5 -0.2
v -4.2 14.5 -0.3
v -4.2 14.5 -0.4
v -4.2 14.6 0.3
v -4.2 14.6 0.2
v -4.2 14.6 0.1
v -4.2 14.6 0
v -4.2 14.6 -0.1
v -4.2 14.6 -0.2
v -4.2 14.6 -0.3
v -4.2 14.7 0.2
v -4.2 14.7 0.1
v -4.2 14.7 0
v -4.2 14.7 -0.2
v -4.4 14.1 0.4
v -4.4 14.5 0.4
v -4.3 14.2 0.4
v -4.3 14.3 0.4
v -4.3 14.4 0.4
v -4.2 14.1 0.4
v -4.2 14.2 0.4
v -4.2 14.3 0.4
v -4.2 14.4 0.4
v -4.2 14.5 0.4
v -5.1 14.1 0.3
v -5.1 14.2 0.3
v -5.1 14.4 0.3
v -5 14.4 0.3
v -5 14.5 0.3
v -4.8 14.4 0.3
v -4.8 14.5 0.3
v -4.7 14.2 0.3
v -4.7 14.3 0.3
v -4.6 14.3 0.3
v -4.6 14.5 0.3
v -4.5 14.1 0.3
v -4.5 14.4 0.3
v -4.4 14 0.3
v -4.4 14.1 0.3
v -4.4 14.4 0.3
v -4.4 14.5 0.3
v -4.4 14.6 0.3
v -4.2 14 0.3
v -4.2 14.1 0.3
v -4.2 14.5 0.3
v -4.2 14.6 0.3
v -5.2 14.1 0.2
v -5.2 14.2 0.2
v -5.2 14.4 0.2
v -5.1 14.1 0.2
v -5.1 14.2 0.2
v -5.1 14.4 0.2
v -5.1 14.5 0.2
v -5 14.4 0.2
v -5 14.5 0.2
v -4.9 14.5 0.2
v -4.9 14.6 0.2
v -4.8 14 0.2
v -4.8 14.1 0.2
v -4.8 14.5 0.2
v -4.6 14.5 0.2
v -4.6 14.6 0.2
v -4.5 14.1 0.2
v -4.4 13.9 0.2
v -4.4 14 0.2
v -4.4 14.1 0.2
v -4.4 14.5 0.2
v -4.4 14.6 0.2
v -4.4 14.7 0.2
v -4.2 13.9 0.2
v -4.2 14 0.2
v -4.2 14.6 0.2
v -4.2 14.7 0.2
v -5.4 14.1 0.1
v -5.4 14.2 0.1
v -5.4 14.3 0.1
v -5.3 14.3 0.1
v -5.3 14.4 0.1
v -5.2 14.1 0.1
v -5.2 14.2 0.1
v -5.2 14.4 0.1
v -5.2 14.5 0.1
v -5.1 14 0.1
v -5.1 14.1 0.1
v -5.1 14.4 0.1
v -5.1 14.5 0.1
v -5 14.5 0.1
v -5 14.6 0.1
v -4.9 12.7 0.1
v -4.9 14 0.1
v -4.9 14.5 0.1
v -4.9 14.6 0.1
v -4.9 14.7 0.1
v -4.8 12.7 0.1
v -4.8 12.9 0.1
v -4.8 13.8 0.1
v -4.8 13.9 0.1
v -4.8 14 0.1
v -4.8 14.1 0.1
v -4.7 12.7 0.1
v -4.7 12.9 0.1
v -4.7 13.8 0.1
v -4.7 13.9 0.1
v -4.7 14 0.1
v -4.7 14.6 0.1
v -4.7 14.7 0.1
v -5.4 14.1 -0.1
v -5.4 14.2 -0.1
v -5.4 14.3 -0.1
v -5.3 14.3 -0.1
v -5.3 14.4 -0.1
v -5.2 14.1 -0.1
v -5.2 14.2 -0.1
v -5.2 14.4 -0.1
v -5.2 14.5 -0.1
v -5.1 14 -0.1
v -5.1 14.1 -0.1
v -5.1 14.4 -0.1
v -5.1 14.5 -0.1
v -5 14.5 -0.1
v -5 14.6 -0.1
v -4.9 12.7 -0.1
v -4.9 14 -0.1
v -4.9 14.5 -0.1
v -4.9 14.6 -0.1
v -4.9 14.7 -0.1
v -4.8 12.7 -0.1
v -4.8 12.9 -0.1
v -4.8 13.8 -0.1
v -4.8 13.9 -0.1
v -4.8 14 -0.1
v -4.8 14.1 -0.1
v -4.7 12.7 -0.1
v -4.7 12.9 -0.1
v -4.7 13.8 -0.1
v -4.7 13.9 -0.1
v -4.7 14 -0.1
v -4.7 14.6 -0.1
v -4.7 14.7 -0.1
v -5.2 14.1 -0.2
v -5.2 14.2 -0.2
v -5.2 14.4 -0.2
v -5.1 14.1 -0.2
v -5.1 14.2 -0.2
v -5.1 14.4 -0.2
v -5.1 14.5 -0.2
v -5 14.4 -0.2
v -5 14.5 -0.2
v -4.9 14.5 -0.2
v -4.9 14.6 -0.2
v -4.8 14 -0.2
v -4.8 14.1 -0.2
v -4.8 14.5 -0.2
v -4.6 14.5 -0.2
v -4.6 14.6 -0.2
v -4.5 14.1 -0.2
v -4.4 13.9 -0.2
v -4.4 14 -0.2
v -4.4 14.1 -0.2
v -4.4 14.5 -0.2
v -4.4 14.6 -0.2
v -4.4 14.7 -0.2
v -4.2 13.9 -0.2
v -4.2 14 -0.2
v -4.2 14.6 -0.2
v -4.2 14.7 -0.2
v -5.1 14.1 -0.3
v -5.1 14.2 -0.3
v -5.1 14.4 -0.3
v -5 14.4 -0.3
v -5 14.5 -0.3
v -4.8 14.4 -0.3
v -4.8 14.5 -0.3
v -4.7 14.2 -0.3
v -4.7 14.3 -0.3
v -4.6 14.3 -0.3
v -4.6 14.5 -0.3
v -4.5 14.1 -0.3
v -4.5 14.4 -0.3
v -4.4 14 -0.3
v -4.4 14.1 -0.3
v -4.4 14.4 -0.3
v -4.4 14.5 -0.3
v -4.4 14.6 -0.3
v -4.2 14 -0.3
v -4.2 14.1 -0.3
v -4.2 14.5 -0.3
v -4.2 14.6 -0.3
v -4.4 14.1 -0.4
v -4.4 14.5 -0.4
v -4.3 14.2 -0.4
v -4.3 14.3 -0.4
v -4.2 14.1 -0.4
v -4.2 14.2 -0.4
v -4.2 14.3 -0.4
v -4.2 14.5 -0.4
v -4.9 12.7 0.1
v -4.8 12.7 0.1
v -4.7 12.7 0.1
v -4.9 12.7 -0.1
v -4.8 12.7 -0.1
v -4.7 12.7 -0.1
v -4.4 13.9 0.2
v -4.2 13.9 0.2
v -4.3 13.9 0
v -4.2 13.9 0
v -4.3 13.9 -0.1
v -4.2 13.9 -0.1
v -4.4 13.9 -0.2
v -4.2 13.9 -0.2
v -4.4 14 0.3
v -4.2 14 0.3
v -4.8 14 0.2
v -4.4 14 0.2
v -4.2 14 0.2
v -5.1 14 0.1
v -4.9 14 0.1
v -4.8 14 0.1
v -4.7 14 0.1
v -5.1 14 -0.1
v -4.9 14 -0.1
v -4.8 14 -0.1
v -4.7 14 -0.1
v -4.8 14 -0.2
v -4.4 14 -0.2
v -4.2 14 -0.2
v -4.4 14 -0.3
v -4.2 14 -0.3
v -4.4 14.1 0.4
v -4.2 14.1 0.4
v -5.1 14.1 0.3
v -4.5 14.1 0.3
v -4.4 14.1 0.3
v -4.2 14.1 0.3
v -5.2 14.1 0.2
v -5.1 14.1 0.2
v -4.8 14.1 0.2
v -4.5 14.1 0.2
v -4.4 14.1 0.2
v -5.4 14.1 0.1
v -5.2 14.1 0.1
v -5.1 14.1 0.1
v -4.8 14.1 0.1
v -5.4 14.1 -0.1
v -5.2 14.1 -0.1
v -5.1 14.1 -0.1
v -4.8 14.1 -0.1
v -5.2 14.1 -0.2
v -5.1 14.1 -0.2
v -4.8 14.1 -0.2
v -4.5 14.1 -0.2
v -4.4 14.1 -0.2
v -5.1 14.1 -0.3
v -4.5 14.1 -0.3
v -4.4 14.1 -0.3
v -4.2 14.1 -0.3
v -4.4 14.1 -0.4
v -4.2 14.1 -0.4
v -5.4 14.3 0.1
v -5.3 14.3 0.1
v -5.4 14.3 -0.1
v -5.3 14.3 -0.1
v -5.1 14.4 0.3
v -5 14.4 0.3
v -5.2 14.4 0.2
v -5.1 14.4 0.2
v -5 14.4 0.2
v -5.3 14.4 0.1
v -5.2 14.4 0.1
v -5.1 14.4 0.1
v -5.3 14.4 -0.1
v -5.2 14.4 -0.1
v -5.1 14.4 -0.1
v -5.2 14.4 -0.2
v -5.1 14.4 -0.2
v -5 14.4 -0.2
v -5.1 14.4 -0.3
v -5 14.4 -0.3
v -4.4 14.5 0.4
v -4.2 14.5 0.4
v -5 14.5 0.3
v -4.8 14.5 0.3
v -4.6 14.5 0.3
v -4.4 14.5 0.3
v -4.2 14.5 0.3
v -5.1 14.5 0.2
v -5 14.5 0.2
v -4.9 14.5 0.2
v -4.8 14.5 0.2
v -4.6 14.5 0.2
v -4.4 14.5 0.2
v -5.2 14.5 0.1
v -5.1 14.5 0.1
v -5 14.5 0.1
v -4.9 14.5 0.1
v -5.2 14.5 -0.1
v -5.1 14.5 -0.1
v -5 14.5 -0.1
v -4.9 14.5 -0.1
v -5.1 14.5 -0.2
v -5 14.5 -0.2
v -4.9 14.5 -0.2
v -4.8 14.5 -0.2
v -4.6 14.5 -0.2
v -4.4 14.5 -0.2
v -5 14.5 -0.3
v -4.8 14.5 -0.3
v -4.6 14.5 -0.3
v -4.4 14.5 -0.3
v -4.2 14.5 -0.3
v -4.4 14.5 -0.4
v -4.2 14.5 -0.4
v -4.4 14.6 0.3
v -4.2 14.6 0.3
v -4.9 14.6 0.2
v -4.6 14.6 0.2
v -4.4 14.6 0.2
v -4.2 14.6 0.2
v -5 14.6 0.1
v -4.9 14.6 0.1
v -4.7 14.6 0.1
v -4.6 14.6 0.1
v -4.5 14.6 0.1
v -5 14.6 -0.1
v -4.9 14.6 -0.1
v -4.7 14.6 -0.1
v -4.6 14.6 -0.1
v -4.5 14.6 -0.1
v -4.9 14.6 -0.2
v -4.6 14.6 -0.2
v -4.4 14.6 -0.2
v -4.2 14.6 -0.2
v -4.4 14.6 -0.3
v -4.2 14.6 -0.3
v -4.4 14.7 0.2
v -4.2 14.7 0.2
v -4.9 14.7 0.1
v -4.7 14.7 0.1
v -4.3 14.7 0.1
v -4.2 14.7 0.1
v -4.3 14.7 0
v -4.2 14.7 0
v -4.9 14.7 -0.1
v -4.7 14.7 -0.1
v -4.4 14.7 -0.2
v -4.2 14.7 -0.2

# faces
f 3/8/1 2/8/1 1/8/1
f 4/8/1 2/8/1 3/8/1
f 5/7/1 4/7/1 3/7/1
f 6/7/1 4/7/1 5/7/1
f 9/7/1 8/7/1 7/7/1
f 10/7/1 8/7/1 9/7/1
f 15/8/1 12/8/1 11/8/1
f 16/8/1 12/8/1 15/8/1
f 17/8/1 14/8/1 13/8/1
f 18/8/1 14/8/1 17/8/1
f 19/7/1 16/7/1 15/7/1
f 20/7/1 16/7/1 19/7/1
f 21/7/1 18/7/1 17/7/1
f 22/7/1 18/7/1 21/7/1
f 23/6/1 21/6/1 20/6/1
f 24/6/1 21/6/1 23/6/1
f 29/9/1 26/9/1 25/9/1
f 30/9/1 26/9/1 29/9/1
f 33/8/1 28/8/1 27/8/1
f 34/8/1 28/8/1 33/8/1
f 35/8/1 32/8/1 31/8/1
f 36/8/1 32/8/1 35/8/1
f 37/7/1 34/7/1 33/7/1
f 38/7/1 34/7/1 37/7/1
f 41/7/1 36/7/1 35/7/1
f 42/7/1 36/7/1 41/7/1
f 43/6/1 39/6/1 38/6/1
f 44/6/1 39/6/1 43/6/1
f 45/6/1 41/6/1 40/6/1
f 46/6/1 41/6/1 45/6/1
f 51/6/1 48/6/1 47/6/1
f 52/6/1 48/6/1 51/6/1
f 55/6/1 50/6/1 49/6/1
f 56/6/1 50/6/1 55/6/1
f 57/7/1 54/7/1 53/7/1
f 58/7/1 54/7/1 57/7/1
f 61/1/1 60/1/1 59/1/1
f 62/1/1 60/1/1 61/1/1
f 67/7/1 64/7/1 63/7/1
f 68/7/1 64/7/1 67/7/1
f 69/7/1 66/7/1 65/7/1
f 70/7/1 66/7/1 69/7/1
f 71/3/1 69/3/1 68/3/1
f 72/3/1 69/3/1 71/3/1
f 77/9/1 74/9/1 73/9/1
f 78/9/1 74/9/1 77/9/1
f 79/9/1 76/9/1 75/9/1
f 80/9/1 76/9/1 79/9/1
f 84/8/1 82/8/1 81/8/1
f 85/8/1 82/8/1 84/8/1
f 88/8/1 84/8/1 83/8/1
f 89/8/1 84/8/1 88/8/1
f 90/8/1 86/8/1 85/8/1
f 91/8/1 86/8/1 90/8/1
f 93/6/1 88/6/1 87/6/1
f 94/6/1 92/6/1 91/6/1
f 95/6/1 93/6/1 87/6/1
f 96/6/1 93/6/1 95/6/1
f 99/6/1 92/6/1 94/6/1
f 100/6/1 92/6/1 99/6/1
f 101/6/1 97/6/1 96/6/1
f 102/6/1 97/6/1 101/6/1
f 103/6/1 99/6/1 98/6/1
f 104/6/1 99/6/1 103/6/1
f 105/6/1 103/6/1 102/6/1
f 106/6/1 103/6/1 105/6/1
f 107/2/2 108/2/2 109/2/2
f 109/2/2 108/2/2 110/2/2
f 109/3/2 110/3/2 111/3/2
f 111/3/2 110/3/2 112/3/2
f 111/2/2 112/2/2 113/2/2
f 113/2/2 112/2/2 114/2/2
f 113/1/2 114/1/2 115/1/2
f 115/1/2 114/1/2 116/1/2
f 117/3/2 118/3/2 119/3/2
f 119/3/2 118/3/2 120/3/2
f 121/8/2 122/8/2 126/8/2
f 126/8/2 122/8/2 127/8/2
f 122/9/2 123/9/2 128/9/2
f 127/8/2 122/8/2 128/8/2
f 123/8/2 124/8/2 129/8/2
f 128/9/2 123/9/2 129/9/2
f 129/8/2 124/8/2 130/8/2
f 126/8/2 127/8/2 133/8/2
f 125/8/2 126/8/2 133/8/2
f 133/8/2 127/8/2 134/8/2
f 127/9/2 128/9/2 135/9/2
f 134/8/2 127/8/2 135/8/2
f 129/7/2 130/7/2 136/7/2
f 135/9/2 128/9/2 136/9/2
f 128/7/2 129/7/2 136/7/2
f 130/8/2 131/8/2 137/8/2
f 136/7/2 130/7/2 137/7/2
f 137/8/2 131/8/2 138/8/2
f 132/6/2 133/6/2 140/6/2
f 133/8/2 134/8/2 141/8/2
f 140/6/2 133/6/2 141/6/2
f 134/9/2 135/9/2 142/9/2
f 141/8/2 134/8/2 142/8/2
f 135/7/2 136/7/2 143/7/2
f 142/9/2 135/9/2 143/9/2
f 136/7/2 137/7/2 143/7/2
f 143/7/2 137/7/2 144/7/2
f 137/5/2 138/5/2 145/5/2
f 144/7/2 137/7/2 145/7/2
f 138/6/2 139/6/2 146/6/2
f 145/5/2 138/5/2 146/5/2
f 146/6/2 139/6/2 147/6/2
f 140/8/2 141/8/2 148/8/2
f 141/9/2 142/9/2 149/9/2
f 148/8/2 141/8/2 149/8/2
f 143/7/2 144/7/2 150/7/2
f 149/9/2 142/9/2 150/9/2
f 142/7/2 143/7/2 150/7/2
f 150/7/2 144/7/2 151/7/2
f 144/5/2 145/5/2 152/5/2
f 151/7/2 144/7/2 152/7/2
f 145/5/2 146/5/2 152/5/2
f 152/5/2 146/5/2 153/5/2
f 146/4/2 147/4/2 154/4/2
f 153/5/2 146/5/2 154/5/2
f 154/4/2 147/4/2 155/4/2
f 148/9/2 149/9/2 156/9/2
f 150/7/2 151/7/2 157/7/2
f 156/9/2 149/9/2 157/9/2
f 149/7/2 150/7/2 157/7/2
f 157/7/2 151/7/2 158/7/2
f 152/5/2 153/5/2 159/5/2
f 158/7/2 151/7/2 159/7/2
f 151/5/2 152/5/2 159/5/2
f 159/5/2 153/5/2 160/5/2
f 153/4/2 154/4/2 161/4/2
f 160/5/2 153/5/2 161/5/2
f 154/6/2 155/6/2 162/6/2
f 161/4/2 154/4/2 162/4/2
f 156/6/2 157/6/2 163/6/2
f 157/7/2 158/7/2 164/7/2
f 163/6/2 157/6/2 164/6/2
f 164/7/2 158/7/2 165/7/2
f 159/5/2 160/5/2 166/5/2
f 165/7/2 158/7/2 166/7/2
f 158/5/2 159/5/2 166/5/2
f 166/5/2 160/5/2 167/5/2
f 160/4/2 161/4/2 168/4/2
f 167/5/2 160/5/2 168/5/2
f 161/7/2 162/7/2 169/7/2
f 168/4/2 161/4/2 169/4/2
f 162/6/2 155/6/2 170/6/2
f 169/7/2 162/7/2 170/7/2
f 170/6/2 155/6/2 171/6/2
f 164/6/2 165/6/2 172/6/2
f 166/5/2 167/5/2 173/5/2
f 172/6/2 165/6/2 173/6/2
f 165/5/2 166/5/2 173/5/2
f 173/5/2 167/5/2 174/5/2
f 167/4/2 168/4/2 175/4/2
f 174/5/2 167/5/2 175/5/2
f 168/7/2 169/7/2 176/7/2
f 175/4/2 168/4/2 176/4/2
f 169/6/2 170/6/2 177/6/2
f 176/7/2 169/7/2 177/7/2
f 177/6/2 170/6/2 178/6/2
f 173/6/2 174/6/2 179/6/2
f 174/4/2 175/4/2 180/4/2
f 179/6/2 174/6/2 180/6/2
f 175/6/2 176/6/2 181/6/2
f 180/4/2 175/4/2 181/4/2
f 176/6/2 177/6/2 181/6/2
f 181/6/2 177/6/2 182/6/2
f 185/6/3 184/6/3 183/6/3
f 186/6/3 184/6/3 185/6/3
f 187/6/3 184/6/3 186/6/3
f 188/6/3 185/6/3 183/6/3
f 189/8/3 186/8/3 185/8/3
f 189/6/3 185/6/3 188/6/3
f 190/9/3 187/9/3 186/9/3
f 190/8/3 186/8/3 189/8/3
f 191/6/3 184/6/3 187/6/3
f 191/9/3 187/9/3 190/9/3
f 192/6/3 184/6/3 191/6/3
f 196/7/3 195/7/3 194/7/3
f 198/7/3 196/7/3 194/7/3
f 198/6/3 197/6/3 196/6/3
f 199/6/3 197/6/3 198/6/3
f 200/8/3 194/8/3 193/8/3
f 200/7/3 198/7/3 194/7/3
f 200/7/3 199/7/3 198/7/3
f 201/7/3 199/7/3 200/7/3
f 202/8/3 201/8/3 200/8/3
f 202/7/3 199/7/3 201/7/3
f 203/7/3 199/7/3 202/7/3
f 204/8/3 200/8/3 193/8/3
f 204/8/3 202/8/3 200/8/3
f 204/8/3 203/8/3 202/8/3
f 205/8/3 203/8/3 204/8/3
f 207/9/3 205/9/3 204/9/3
f 208/8/3 203/8/3 205/8/3
f 208/9/3 205/9/3 207/9/3
f 209/8/3 203/8/3 208/8/3
f 211/8/3 207/8/3 206/8/3
f 212/8/3 207/8/3 211/8/3
f 213/6/3 210/6/3 209/6/3
f 214/6/3 210/6/3 213/6/3
f 218/8/3 216/8/3 215/8/3
f 219/7/3 217/7/3 216/7/3
f 219/8/3 216/8/3 218/8/3
f 220/7/3 217/7/3 219/7/3
f 222/6/3 221/6/3 220/6/3
f 223/6/3 221/6/3 222/6/3
f 228/7/3 225/7/3 224/7/3
f 229/7/3 225/7/3 228/7/3
f 230/7/3 225/7/3 229/7/3
f 231/9/3 227/9/3 226/9/3
f 233/9/3 231/9/3 226/9/3
f 234/9/3 231/9/3 233/9/3
f 235/8/3 230/8/3 229/8/3
f 236/8/3 230/8/3 235/8/3
f 238/8/3 233/8/3 232/8/3
f 239/8/3 233/8/3 238/8/3
f 240/6/3 237/6/3 236/6/3
f 241/6/3 237/6/3 240/6/3
f 245/7/3 244/7/3 243/7/3
f 247/8/3 243/8/3 242/8/3
f 248/7/3 246/7/3 245/7/3
f 248/8/3 243/8/3 247/8/3
f 248/7/3 245/7/3 243/7/3
f 249/7/3 246/7/3 248/7/3
f 253/6/3 250/6/3 249/6/3
f 254/6/3 250/6/3 253/6/3
f 258/9/3 252/9/3 251/9/3
f 259/7/3 256/7/3 255/7/3
f 260/7/3 256/7/3 259/7/3
f 262/1/3 258/1/3 257/1/3
f 263/1/3 258/1/3 262/1/3
f 264/1/3 258/1/3 263/1/3
f 265/1/3 258/1/3 264/1/3
f 266/9/3 252/9/3 258/9/3
f 266/1/3 258/1/3 265/1/3
f 267/9/3 252/9/3 266/9/3
f 268/2/3 263/2/3 262/2/3
f 269/3/3 264/3/3 263/3/3
f 269/2/3 263/2/3 268/2/3
f 270/2/3 265/2/3 264/2/3
f 270/3/3 264/3/3 269/3/3
f 271/1/3 266/1/3 265/1/3
f 271/2/3 265/2/3 270/2/3
f 272/1/3 266/1/3 271/1/3
f 273/3/3 261/3/3 260/3/3
f 274/3/3 261/3/3 273/3/3
f 276/7/4 277/7/4 278/7/4
f 275/8/4 276/8/4 280/8/4
f 278/7/4 279/7/4 281/7/4
f 280/8/4 276/8/4 281/8/4
f 276/7/4 278/7/4 281/7/4
f 281/7/4 279/7/4 282/7/4
f 282/6/4 283/6/4 286/6/4
f 286/6/4 283/6/4 287/6/4
f 284/9/4 285/9/4 291/9/4
f 288/7/4 289/7/4 292/7/4
f 292/7/4 289/7/4 293/7/4
f 290/1/4 291/1/4 295/1/4
f 295/1/4 291/1/4 296/1/4
f 296/1/4 291/1/4 297/1/4
f 297/1/4 291/1/4 298/1/4
f 291/9/4 285/9/4 299/9/4
f 298/1/4 291/1/4 299/1/4
f 299/9/4 285/9/4 300/9/4
f 295/2/4 296/2/4 301/2/4
f 296/3/4 297/3/4 302/3/4
f 301/2/4 296/2/4 302/2/4
f 297/2/4 298/2/4 303/2/4
f 302/3/4 297/3/4 303/3/4
f 298/1/4 299/1/4 304/1/4
f 303/2/4 298/2/4 304/2/4
f 304/1/4 299/1/4 305/1/4
f 293/3/4 294/3/4 306/3/4
f 306/3/4 294/3/4 307/3/4
f 308/8/4 309/8/4 311/8/4
f 309/7/4 310/7/4 312/7/4
f 311/8/4 309/8/4 312/8/4
f 312/7/4 310/7/4 313/7/4
f 313/6/4 314/6/4 315/6/4
f 315/6/4 314/6/4 316/6/4
f 317/7/4 318/7/4 321/7/4
f 321/7/4 318/7/4 322/7/4
f 322/7/4 318/7/4 323/7/4
f 319/9/4 320/9/4 324/9/4
f 319/9/4 324/9/4 326/9/4
f 326/9/4 324/9/4 327/9/4
f 322/8/4 323/8/4 328/8/4
f 328/8/4 323/8/4 329/8/4
f 325/8/4 326/8/4 331/8/4
f 331/8/4 326/8/4 332/8/4
f 329/6/4 330/6/4 333/6/4
f 333/6/4 330/6/4 334/6/4
f 336/7/4 337/7/4 338/7/4
f 336/7/4 338/7/4 340/7/4
f 338/6/4 339/6/4 340/6/4
f 340/6/4 339/6/4 341/6/4
f 335/8/4 336/8/4 342/8/4
f 336/7/4 340/7/4 342/7/4
f 340/7/4 341/7/4 342/7/4
f 342/7/4 341/7/4 343/7/4
f 342/8/4 343/8/4 344/8/4
f 343/7/4 341/7/4 344/7/4
f 344/7/4 341/7/4 345/7/4
f 335/8/4 342/8/4 346/8/4
f 342/8/4 344/8/4 346/8/4
f 344/8/4 345/8/4 346/8/4
f 346/8/4 345/8/4 347/8/4
f 346/9/4 347/9/4 349/9/4
f 347/8/4 345/8/4 350/8/4
f 349/9/4 347/9/4 350/9/4
f 350/8/4 345/8/4 351/8/4
f 348/8/4 349/8/4 353/8/4
f 353/8/4 349/8/4 354/8/4
f 351/6/4 352/6/4 355/6/4
f 355/6/4 352/6/4 356/6/4
f 357/6/4 358/6/4 359/6/4
f 359/6/4 358/6/4 360/6/4
f 357/6/4 359/6/4 361/6/4
f 359/4/4 360/4/4 362/4/4
f 361/6/4 359/6/4 362/6/4
f 360/6/4 358/6/4 363/6/4
f 362/4/4 360/4/4 363/4/4
f 363/6/4 358/6/4 364/6/4
f 368/1/5 366/1/5 365/1/5
f 369/2/5 367/2/5 366/2/5
f 369/1/5 366/1/5 368/1/5
f 370/2/5 367/2/5 369/2/5
f 373/8/5 372/8/5 371/8/5
f 374/8/5 372/8/5 373/8/5
f 375/8/5 373/8/5 371/8/5
f 375/9/5 374/9/5 373/9/5
f 376/9/5 374/9/5 375/9/5
f 377/8/5 375/8/5 371/8/5
f 377/8/5 376/8/5 375/8/5
f 378/8/5 376/8/5 377/8/5
f 382/8/5 380/8/5 379/8/5
f 383/8/5 380/8/5 382/8/5
f 386/9/5 382/9/5 381/9/5
f 387/9/5 382/9/5 386/9/5
f 388/9/5 385/9/5 384/9/5
f 389/9/5 385/9/5 388/9/5
f 391/9/5 382/9/5 387/9/5
f 392/9/5 391/9/5 390/9/5
f 393/9/5 382/9/5 391/9/5
f 393/9/5 391/9/5 392/9/5
f 395/8/5 394/8/5 393/8/5
f 396/8/5 394/8/5 395/8/5
f 401/6/5 398/6/5 397/6/5
f 402/6/5 398/6/5 401/6/5
f 404/8/5 400/8/5 399/8/5
f 405/8/5 400/8/5 404/8/5
f 406/9/5 401/9/5 400/9/5
f 406/8/5 400/8/5 405/8/5
f 407/9/5 401/9/5 406/9/5
f 409/8/5 405/8/5 404/8/5
f 409/8/5 404/8/5 403/8/5
f 410/8/5 405/8/5 409/8/5
f 411/8/5 405/8/5 410/8/5
f 412/8/5 409/8/5 408/8/5
f 412/8/5 410/8/5 409/8/5
f 413/8/5 410/8/5 412/8/5
f 414/8/5 410/8/5 413/8/5
f 416/8/5 415/8/5 414/8/5
f 416/8/5 414/8/5 413/8/5
f 417/8/5 415/8/5 416/8/5
f 418/8/5 415/8/5 417/8/5
f 421/8/5 418/8/5 417/8/5
f 421/8/5 419/8/5 418/8/5
f 422/9/5 420/9/5 419/9/5
f 422/8/5 419/8/5 421/8/5
f 423/9/5 420/9/5 422/9/5
f 425/6/5 424/6/5 423/6/5
f 426/6/5 424/6/5 425/6/5
f 427/7/6 428/7/6 429/7/6
f 429/7/6 428/7/6 430/7/6
f 431/7/6 432/7/6 434/7/6
f 434/7/6 432/7/6 435/7/6
f 433/7/6 434/7/6 437/7/6
f 437/7/6 434/7/6 438/7/6
f 436/7/6 437/7/6 439/7/6
f 439/7/6 437/7/6 440/7/6
f 440/7/6 441/7/6 442/7/6
f 442/7/6 441/7/6 443/7/6
f 443/7/6 444/7/6 445/7/6
f 445/7/6 444/7/6 446/7/6
f 447/6/6 448/6/6 452/6/6
f 452/6/6 448/6/6 453/6/6
f 449/6/6 450/6/6 455/6/6
f 455/6/6 450/6/6 456/6/6
f 450/7/6 451/7/6 457/7/6
f 456/6/6 450/6/6 457/6/6
f 451/8/6 452/8/6 458/8/6
f 457/7/6 451/7/6 458/7/6
f 458/8/6 452/8/6 459/8/6
f 455/6/6 456/6/6 461/6/6
f 454/6/6 455/6/6 461/6/6
f 461/6/6 456/6/6 462/6/6
f 462/6/6 456/6/6 463/6/6
f 460/6/6 461/6/6 464/6/6
f 461/6/6 462/6/6 464/6/6
f 464/6/6 462/6/6 465/6/6
f 465/6/6 462/6/6 466/6/6
f 466/6/6 467/6/6 468/6/6
f 465/6/6 466/6/6 468/6/6
f 468/6/6 467/6/6 469/6/6
f 469/6/6 467/6/6 470/6/6
f 469/6/6 470/6/6 474/6/6
f 470/6/6 471/6/6 474/6/6
f 471/7/6 472/7/6 475/7/6
f 474/6/6 471/6/6 475/6/6
f 472/8/6 473/8/6 476/8/6
f 475/7/6 472/7/6 476/7/6
f 476/8/6 473/8/6 477/8/6
f 477/6/6 478/6/6 479/6/6
f 479/6/6 478/6/6 480/6/6
f 481/6/6 482/6/6 485/6/6
f 485/6/6 482/6/6 486/6/6
f 483/7/6 484/7/6 488/7/6
f 488/7/6 484/7/6 489/7/6
f 484/8/6 485/8/6 490/8/6
f 489/7/6 484/7/6 490/7/6
f 490/8/6 485/8/6 491/8/6
f 487/7/6 488/7/6 492/7/6
f 492/7/6 488/7/6 493/7/6
f 490/7/6 491/7/6 494/7/6
f 489/7/6 490/7/6 494/7/6
f 494/7/6 491/7/6 495/7/6
f 491/8/6 485/8/6 496/8/6
f 495/7/6 491/7/6 496/7/6
f 494/7/6 495/7/6 497/7/6
f 493/7/6 494/7/6 497/7/6
f 495/8/6 496/8/6 498/8/6
f 497/7/6 495/7/6 498/7/6
f 496/8/6 485/8/6 499/8/6
f 498/8/6 496/8/6 499/8/6
f 499/6/6 500/6/6 501/6/6
f 501/6/6 500/6/6 502/6/6
f 503/6/6 504/6/6 507/6/6
f 507/6/6 504/6/6 508/6/6
f 503/6/6 507/6/6 509/6/6
f 507/4/6 508/4/6 509/4/6
f 509/4/6 508/4/6 510/4/6
f 505/3/6 506/3/6 511/3/6
f 511/3/6 506/3/6 512/3/6
f 503/6/6 509/6/6 513/6/6
f 509/6/6 510/6/6 513/6/6
f 513/6/6 510/6/6 514/6/6
